G04 #@! TF.GenerationSoftware,KiCad,Pcbnew,(5.0.0)*
G04 #@! TF.CreationDate,2019-12-01T19:36:12-08:00*
G04 #@! TF.ProjectId,Motor,4D6F746F722E6B696361645F70636200,rev?*
G04 #@! TF.SameCoordinates,PX3851b98PY8841978*
G04 #@! TF.FileFunction,Copper,L2,Bot,Signal*
G04 #@! TF.FilePolarity,Positive*
%FSLAX46Y46*%
G04 Gerber Fmt 4.6, Leading zero omitted, Abs format (unit mm)*
G04 Created by KiCad (PCBNEW (5.0.0)) date 12/01/19 19:36:12*
%MOMM*%
%LPD*%
G01*
G04 APERTURE LIST*
G04 #@! TA.AperFunction,NonConductor*
%ADD10C,0.150000*%
G04 #@! TD*
G04 #@! TA.AperFunction,ComponentPad*
%ADD11R,1.600000X1.600000*%
G04 #@! TD*
G04 #@! TA.AperFunction,ComponentPad*
%ADD12O,1.600000X1.600000*%
G04 #@! TD*
G04 #@! TA.AperFunction,ComponentPad*
%ADD13R,1.700000X1.700000*%
G04 #@! TD*
G04 #@! TA.AperFunction,ComponentPad*
%ADD14O,1.700000X1.700000*%
G04 #@! TD*
G04 #@! TA.AperFunction,ComponentPad*
%ADD15C,1.400000*%
G04 #@! TD*
G04 #@! TA.AperFunction,ComponentPad*
%ADD16O,1.400000X1.400000*%
G04 #@! TD*
G04 #@! TA.AperFunction,Conductor*
%ADD17C,0.100000*%
G04 #@! TD*
G04 #@! TA.AperFunction,SMDPad,CuDef*
%ADD18C,0.950000*%
G04 #@! TD*
G04 #@! TA.AperFunction,ViaPad*
%ADD19C,2.000000*%
G04 #@! TD*
G04 #@! TA.AperFunction,Conductor*
%ADD20C,0.800000*%
G04 #@! TD*
G04 #@! TA.AperFunction,Conductor*
%ADD21C,0.500000*%
G04 #@! TD*
G04 APERTURE END LIST*
D10*
X70485000Y98425000D02*
X1905000Y98425000D01*
X70485000Y1905000D02*
X70485000Y98425000D01*
X1905000Y1905000D02*
X70485000Y1905000D01*
X1905000Y98425000D02*
X1905000Y1905000D01*
D11*
G04 #@! TO.P,A1,1*
G04 #@! TO.N,/SERIAL_TX*
X46355000Y41275000D03*
D12*
G04 #@! TO.P,A1,17*
G04 #@! TO.N,+3V3*
X13335000Y26035000D03*
G04 #@! TO.P,A1,2*
G04 #@! TO.N,/SERIAL_RX*
X43815000Y41275000D03*
G04 #@! TO.P,A1,18*
G04 #@! TO.N,Net-(A1-Pad18)*
X15875000Y26035000D03*
G04 #@! TO.P,A1,3*
G04 #@! TO.N,Net-(A1-Pad3)*
X41275000Y41275000D03*
G04 #@! TO.P,A1,19*
G04 #@! TO.N,/CURRENT_SENSE_1*
X18415000Y26035000D03*
G04 #@! TO.P,A1,4*
G04 #@! TO.N,GND*
X38735000Y41275000D03*
G04 #@! TO.P,A1,20*
G04 #@! TO.N,/CURRENT_SENSE_2*
X20955000Y26035000D03*
G04 #@! TO.P,A1,5*
G04 #@! TO.N,Net-(A1-Pad5)*
X36195000Y41275000D03*
G04 #@! TO.P,A1,21*
G04 #@! TO.N,/RUDDER_SENSE*
X23495000Y26035000D03*
G04 #@! TO.P,A1,6*
G04 #@! TO.N,/ENGAGE_LED*
X33655000Y41275000D03*
G04 #@! TO.P,A1,22*
G04 #@! TO.N,/TEMP_CNTRL*
X26035000Y26035000D03*
G04 #@! TO.P,A1,7*
G04 #@! TO.N,/H_ENABLE*
X31115000Y41275000D03*
G04 #@! TO.P,A1,23*
G04 #@! TO.N,/TEMP_MOTOR*
X28575000Y26035000D03*
G04 #@! TO.P,A1,8*
G04 #@! TO.N,/H_RPWM*
X28575000Y41275000D03*
G04 #@! TO.P,A1,24*
G04 #@! TO.N,/VOLTAGE_SENSE*
X31115000Y26035000D03*
G04 #@! TO.P,A1,9*
G04 #@! TO.N,/H_LPWM*
X26035000Y41275000D03*
G04 #@! TO.P,A1,25*
G04 #@! TO.N,GND*
X33655000Y26035000D03*
G04 #@! TO.P,A1,10*
G04 #@! TO.N,/ENDSTOP_STB*
X23495000Y41275000D03*
G04 #@! TO.P,A1,26*
G04 #@! TO.N,GND*
X36195000Y26035000D03*
G04 #@! TO.P,A1,11*
G04 #@! TO.N,/ENDSTOP_PRT*
X20955000Y41275000D03*
G04 #@! TO.P,A1,27*
G04 #@! TO.N,+5V*
X38735000Y26035000D03*
G04 #@! TO.P,A1,12*
G04 #@! TO.N,/RESET*
X18415000Y41275000D03*
G04 #@! TO.P,A1,28*
G04 #@! TO.N,Net-(A1-Pad28)*
X41275000Y26035000D03*
G04 #@! TO.P,A1,13*
G04 #@! TO.N,/CS*
X15875000Y41275000D03*
G04 #@! TO.P,A1,29*
G04 #@! TO.N,GND*
X43815000Y26035000D03*
G04 #@! TO.P,A1,14*
G04 #@! TO.N,/MOSI*
X13335000Y41275000D03*
G04 #@! TO.P,A1,30*
G04 #@! TO.N,Net-(A1-Pad30)*
X46355000Y26035000D03*
G04 #@! TO.P,A1,15*
G04 #@! TO.N,/MISO*
X10795000Y41275000D03*
G04 #@! TO.P,A1,16*
G04 #@! TO.N,/SCK*
X10795000Y26035000D03*
G04 #@! TD*
D13*
G04 #@! TO.P,J1,1*
G04 #@! TO.N,+BATT*
X43815000Y6985000D03*
D14*
G04 #@! TO.P,J1,2*
G04 #@! TO.N,GND*
X41275000Y6985000D03*
G04 #@! TD*
D13*
G04 #@! TO.P,J2,1*
G04 #@! TO.N,GND*
X8255000Y94615000D03*
D14*
G04 #@! TO.P,J2,2*
G04 #@! TO.N,+5V*
X10795000Y94615000D03*
G04 #@! TO.P,J2,3*
G04 #@! TO.N,Net-(J2-Pad3)*
X13335000Y94615000D03*
G04 #@! TO.P,J2,4*
G04 #@! TO.N,Net-(J2-Pad4)*
X15875000Y94615000D03*
G04 #@! TO.P,J2,5*
G04 #@! TO.N,Net-(J2-Pad5)*
X18415000Y94615000D03*
G04 #@! TO.P,J2,6*
G04 #@! TO.N,Net-(J2-Pad6)*
X20955000Y94615000D03*
G04 #@! TO.P,J2,7*
G04 #@! TO.N,Net-(J2-Pad7)*
X23495000Y94615000D03*
G04 #@! TO.P,J2,8*
G04 #@! TO.N,Net-(J2-Pad8)*
X26035000Y94615000D03*
G04 #@! TO.P,J2,9*
G04 #@! TO.N,Net-(J2-Pad9)*
X28575000Y94615000D03*
G04 #@! TO.P,J2,10*
G04 #@! TO.N,Net-(J2-Pad10)*
X31115000Y94615000D03*
G04 #@! TO.P,J2,11*
G04 #@! TO.N,Net-(J2-Pad11)*
X33655000Y94615000D03*
G04 #@! TO.P,J2,12*
G04 #@! TO.N,Net-(J2-Pad12)*
X36195000Y94615000D03*
G04 #@! TO.P,J2,13*
G04 #@! TO.N,Net-(J2-Pad13)*
X38735000Y94615000D03*
G04 #@! TO.P,J2,14*
G04 #@! TO.N,Net-(J2-Pad14)*
X41275000Y94615000D03*
G04 #@! TO.P,J2,15*
G04 #@! TO.N,+3V3*
X43815000Y94615000D03*
G04 #@! TO.P,J2,16*
G04 #@! TO.N,GND*
X46355000Y94615000D03*
G04 #@! TD*
D13*
G04 #@! TO.P,J3,1*
G04 #@! TO.N,GND*
X64135000Y52705000D03*
D14*
G04 #@! TO.P,J3,2*
G04 #@! TO.N,Net-(J3-Pad2)*
X64135000Y50165000D03*
G04 #@! TO.P,J3,3*
G04 #@! TO.N,+5V*
X64135000Y47625000D03*
G04 #@! TO.P,J3,4*
G04 #@! TO.N,/SERIAL_RX*
X64135000Y45085000D03*
G04 #@! TO.P,J3,5*
G04 #@! TO.N,/SERIAL_TX*
X64135000Y42545000D03*
G04 #@! TO.P,J3,6*
G04 #@! TO.N,Net-(J3-Pad6)*
X64135000Y40005000D03*
G04 #@! TD*
D13*
G04 #@! TO.P,J4,1*
G04 #@! TO.N,/H_LPWM*
X64135000Y6985000D03*
D14*
G04 #@! TO.P,J4,2*
G04 #@! TO.N,/H_RPWM*
X64135000Y9525000D03*
G04 #@! TO.P,J4,3*
G04 #@! TO.N,/H_ENABLE*
X64135000Y12065000D03*
G04 #@! TO.P,J4,4*
X64135000Y14605000D03*
G04 #@! TO.P,J4,5*
G04 #@! TO.N,Net-(J4-Pad5)*
X64135000Y17145000D03*
G04 #@! TO.P,J4,6*
G04 #@! TO.N,Net-(J4-Pad6)*
X64135000Y19685000D03*
G04 #@! TO.P,J4,7*
G04 #@! TO.N,+5V*
X64135000Y22225000D03*
G04 #@! TO.P,J4,8*
G04 #@! TO.N,GND*
X64135000Y24765000D03*
G04 #@! TD*
D13*
G04 #@! TO.P,J5,1*
G04 #@! TO.N,/TEMP_MOTOR*
X34925000Y6985000D03*
D14*
G04 #@! TO.P,J5,2*
G04 #@! TO.N,GND*
X32385000Y6985000D03*
G04 #@! TD*
G04 #@! TO.P,J6,2*
G04 #@! TO.N,GND*
X23495000Y6985000D03*
D13*
G04 #@! TO.P,J6,1*
G04 #@! TO.N,/TEMP_CNTRL*
X26035000Y6985000D03*
G04 #@! TD*
G04 #@! TO.P,J7,1*
G04 #@! TO.N,+5V*
X17145000Y6985000D03*
D14*
G04 #@! TO.P,J7,2*
G04 #@! TO.N,/RUDDER_SENSE*
X14605000Y6985000D03*
G04 #@! TO.P,J7,3*
G04 #@! TO.N,GND*
X12065000Y6985000D03*
G04 #@! TD*
D15*
G04 #@! TO.P,R1,1*
G04 #@! TO.N,Net-(J2-Pad10)*
X26035000Y74295000D03*
D16*
G04 #@! TO.P,R1,2*
G04 #@! TO.N,GND*
X18415000Y74295000D03*
G04 #@! TD*
G04 #@! TO.P,R2,2*
G04 #@! TO.N,GND*
X18415000Y81915000D03*
D15*
G04 #@! TO.P,R2,1*
G04 #@! TO.N,Net-(J2-Pad9)*
X26035000Y81915000D03*
G04 #@! TD*
G04 #@! TO.P,R3,1*
G04 #@! TO.N,Net-(J2-Pad8)*
X26035000Y86995000D03*
D16*
G04 #@! TO.P,R3,2*
G04 #@! TO.N,GND*
X18415000Y86995000D03*
G04 #@! TD*
G04 #@! TO.P,R4,2*
G04 #@! TO.N,GND*
X18415000Y78105000D03*
D15*
G04 #@! TO.P,R4,1*
G04 #@! TO.N,Net-(J2-Pad7)*
X26035000Y78105000D03*
G04 #@! TD*
G04 #@! TO.P,R5,1*
G04 #@! TO.N,Net-(J2-Pad6)*
X20955000Y90805000D03*
D16*
G04 #@! TO.P,R5,2*
G04 #@! TO.N,GND*
X13335000Y90805000D03*
G04 #@! TD*
G04 #@! TO.P,R6,2*
G04 #@! TO.N,Net-(J2-Pad10)*
X26035000Y59055000D03*
D15*
G04 #@! TO.P,R6,1*
G04 #@! TO.N,/CS*
X18415000Y59055000D03*
G04 #@! TD*
G04 #@! TO.P,R7,1*
G04 #@! TO.N,/SCK*
X18415000Y84455000D03*
D16*
G04 #@! TO.P,R7,2*
G04 #@! TO.N,Net-(J2-Pad9)*
X26035000Y84455000D03*
G04 #@! TD*
G04 #@! TO.P,R8,2*
G04 #@! TO.N,Net-(J2-Pad8)*
X13335000Y55245000D03*
D15*
G04 #@! TO.P,R8,1*
G04 #@! TO.N,/MOSI*
X13335000Y47625000D03*
G04 #@! TD*
G04 #@! TO.P,R9,1*
G04 #@! TO.N,/MISO*
X10795000Y47625000D03*
D16*
G04 #@! TO.P,R9,2*
G04 #@! TO.N,Net-(J2-Pad7)*
X10795000Y55245000D03*
G04 #@! TD*
G04 #@! TO.P,R10,2*
G04 #@! TO.N,/RESET*
X26035000Y70485000D03*
D15*
G04 #@! TO.P,R10,1*
G04 #@! TO.N,Net-(J2-Pad6)*
X18415000Y70485000D03*
G04 #@! TD*
G04 #@! TO.P,R11,1*
G04 #@! TO.N,GND*
X12065000Y13335000D03*
D16*
G04 #@! TO.P,R11,2*
G04 #@! TO.N,/CURRENT_SENSE_1*
X12065000Y20955000D03*
G04 #@! TD*
G04 #@! TO.P,R12,2*
G04 #@! TO.N,/CURRENT_SENSE_2*
X14605000Y20955000D03*
D15*
G04 #@! TO.P,R12,1*
G04 #@! TO.N,GND*
X14605000Y13335000D03*
G04 #@! TD*
G04 #@! TO.P,R13,1*
G04 #@! TO.N,/CURRENT_SENSE_1*
X52705000Y29845000D03*
D16*
G04 #@! TO.P,R13,2*
G04 #@! TO.N,Net-(J4-Pad5)*
X52705000Y37465000D03*
G04 #@! TD*
G04 #@! TO.P,R14,2*
G04 #@! TO.N,Net-(J4-Pad6)*
X55245000Y37465000D03*
D15*
G04 #@! TO.P,R14,1*
G04 #@! TO.N,/CURRENT_SENSE_2*
X55245000Y29845000D03*
G04 #@! TD*
D16*
G04 #@! TO.P,R15,2*
G04 #@! TO.N,/VOLTAGE_SENSE*
X43815000Y20955000D03*
D15*
G04 #@! TO.P,R15,1*
G04 #@! TO.N,+BATT*
X43815000Y13335000D03*
G04 #@! TD*
G04 #@! TO.P,R16,1*
G04 #@! TO.N,/VOLTAGE_SENSE*
X46355000Y20955000D03*
D16*
G04 #@! TO.P,R16,2*
G04 #@! TO.N,GND*
X46355000Y13335000D03*
G04 #@! TD*
D15*
G04 #@! TO.P,R17,1*
G04 #@! TO.N,+5V*
X34925000Y18415000D03*
D16*
G04 #@! TO.P,R17,2*
G04 #@! TO.N,/TEMP_MOTOR*
X27305000Y18415000D03*
G04 #@! TD*
G04 #@! TO.P,R18,2*
G04 #@! TO.N,/TEMP_CNTRL*
X27305000Y15875000D03*
D15*
G04 #@! TO.P,R18,1*
G04 #@! TO.N,+5V*
X34925000Y15875000D03*
G04 #@! TD*
D17*
G04 #@! TO.N,+5V*
G04 #@! TO.C,C1*
G36*
X61220779Y49813856D02*
X61243834Y49810437D01*
X61266443Y49804773D01*
X61288387Y49796921D01*
X61309457Y49786956D01*
X61329448Y49774974D01*
X61348168Y49761090D01*
X61365438Y49745438D01*
X61381090Y49728168D01*
X61394974Y49709448D01*
X61406956Y49689457D01*
X61416921Y49668387D01*
X61424773Y49646443D01*
X61430437Y49623834D01*
X61433856Y49600779D01*
X61435000Y49577500D01*
X61435000Y49002500D01*
X61433856Y48979221D01*
X61430437Y48956166D01*
X61424773Y48933557D01*
X61416921Y48911613D01*
X61406956Y48890543D01*
X61394974Y48870552D01*
X61381090Y48851832D01*
X61365438Y48834562D01*
X61348168Y48818910D01*
X61329448Y48805026D01*
X61309457Y48793044D01*
X61288387Y48783079D01*
X61266443Y48775227D01*
X61243834Y48769563D01*
X61220779Y48766144D01*
X61197500Y48765000D01*
X60722500Y48765000D01*
X60699221Y48766144D01*
X60676166Y48769563D01*
X60653557Y48775227D01*
X60631613Y48783079D01*
X60610543Y48793044D01*
X60590552Y48805026D01*
X60571832Y48818910D01*
X60554562Y48834562D01*
X60538910Y48851832D01*
X60525026Y48870552D01*
X60513044Y48890543D01*
X60503079Y48911613D01*
X60495227Y48933557D01*
X60489563Y48956166D01*
X60486144Y48979221D01*
X60485000Y49002500D01*
X60485000Y49577500D01*
X60486144Y49600779D01*
X60489563Y49623834D01*
X60495227Y49646443D01*
X60503079Y49668387D01*
X60513044Y49689457D01*
X60525026Y49709448D01*
X60538910Y49728168D01*
X60554562Y49745438D01*
X60571832Y49761090D01*
X60590552Y49774974D01*
X60610543Y49786956D01*
X60631613Y49796921D01*
X60653557Y49804773D01*
X60676166Y49810437D01*
X60699221Y49813856D01*
X60722500Y49815000D01*
X61197500Y49815000D01*
X61220779Y49813856D01*
X61220779Y49813856D01*
G37*
D18*
G04 #@! TD*
G04 #@! TO.P,C1,1*
G04 #@! TO.N,+5V*
X60960000Y49290000D03*
D17*
G04 #@! TO.N,GND*
G04 #@! TO.C,C1*
G36*
X61220779Y51563856D02*
X61243834Y51560437D01*
X61266443Y51554773D01*
X61288387Y51546921D01*
X61309457Y51536956D01*
X61329448Y51524974D01*
X61348168Y51511090D01*
X61365438Y51495438D01*
X61381090Y51478168D01*
X61394974Y51459448D01*
X61406956Y51439457D01*
X61416921Y51418387D01*
X61424773Y51396443D01*
X61430437Y51373834D01*
X61433856Y51350779D01*
X61435000Y51327500D01*
X61435000Y50752500D01*
X61433856Y50729221D01*
X61430437Y50706166D01*
X61424773Y50683557D01*
X61416921Y50661613D01*
X61406956Y50640543D01*
X61394974Y50620552D01*
X61381090Y50601832D01*
X61365438Y50584562D01*
X61348168Y50568910D01*
X61329448Y50555026D01*
X61309457Y50543044D01*
X61288387Y50533079D01*
X61266443Y50525227D01*
X61243834Y50519563D01*
X61220779Y50516144D01*
X61197500Y50515000D01*
X60722500Y50515000D01*
X60699221Y50516144D01*
X60676166Y50519563D01*
X60653557Y50525227D01*
X60631613Y50533079D01*
X60610543Y50543044D01*
X60590552Y50555026D01*
X60571832Y50568910D01*
X60554562Y50584562D01*
X60538910Y50601832D01*
X60525026Y50620552D01*
X60513044Y50640543D01*
X60503079Y50661613D01*
X60495227Y50683557D01*
X60489563Y50706166D01*
X60486144Y50729221D01*
X60485000Y50752500D01*
X60485000Y51327500D01*
X60486144Y51350779D01*
X60489563Y51373834D01*
X60495227Y51396443D01*
X60503079Y51418387D01*
X60513044Y51439457D01*
X60525026Y51459448D01*
X60538910Y51478168D01*
X60554562Y51495438D01*
X60571832Y51511090D01*
X60590552Y51524974D01*
X60610543Y51536956D01*
X60631613Y51546921D01*
X60653557Y51554773D01*
X60676166Y51560437D01*
X60699221Y51563856D01*
X60722500Y51565000D01*
X61197500Y51565000D01*
X61220779Y51563856D01*
X61220779Y51563856D01*
G37*
D18*
G04 #@! TD*
G04 #@! TO.P,C1,2*
G04 #@! TO.N,GND*
X60960000Y51040000D03*
D19*
G04 #@! TO.N,+3V3*
X16510000Y66675000D03*
X36830000Y66675000D03*
G04 #@! TO.N,GND*
X9525000Y88900000D03*
X50165000Y88900000D03*
X64770000Y35560000D03*
X53340000Y24130000D03*
X53975000Y41275000D03*
X53975000Y50800000D03*
G04 #@! TO.N,+5V*
X20575000Y12065000D03*
X34925000Y12065000D03*
X48895000Y47625000D03*
X48895000Y23495000D03*
G04 #@! TD*
D20*
G04 #@! TO.N,/SERIAL_TX*
X46355000Y41275000D02*
X46355000Y43180000D01*
X46355000Y43180000D02*
X46990000Y43815000D01*
X46990000Y43815000D02*
X61595000Y43815000D01*
X62865000Y42545000D02*
X64135000Y42545000D01*
X61595000Y43815000D02*
X62865000Y42545000D01*
G04 #@! TO.N,+3V3*
X13335000Y26035000D02*
X13335000Y29845000D01*
X8255000Y34925000D02*
X8255000Y58420000D01*
X13335000Y29845000D02*
X8255000Y34925000D01*
X8255000Y58420000D02*
X16510000Y66675000D01*
X43815000Y94615000D02*
X43815000Y73660000D01*
X43815000Y73660000D02*
X36830000Y66675000D01*
X16510000Y66675000D02*
X16510000Y66675000D01*
X36830000Y66675000D02*
X36830000Y66675000D01*
G04 #@! TO.N,/SERIAL_RX*
X45085000Y45085000D02*
X64135000Y45085000D01*
X43815000Y41275000D02*
X43815000Y43815000D01*
X43815000Y43815000D02*
X45085000Y45085000D01*
G04 #@! TO.N,/CURRENT_SENSE_1*
X18415000Y26035000D02*
X18415000Y24765000D01*
X18415000Y24765000D02*
X17145000Y23495000D01*
X17145000Y23495000D02*
X13335000Y23495000D01*
X13335000Y23495000D02*
X12065000Y22225000D01*
X12065000Y22225000D02*
X12065000Y20955000D01*
X51435000Y29845000D02*
X52705000Y29845000D01*
X48260000Y33020000D02*
X51435000Y29845000D01*
X22225000Y33020000D02*
X48260000Y33020000D01*
X18415000Y26035000D02*
X18415000Y29210000D01*
X18415000Y29210000D02*
X22225000Y33020000D01*
G04 #@! TO.N,/CURRENT_SENSE_2*
X20955000Y26035000D02*
X20955000Y24765000D01*
X17145000Y20955000D02*
X14605000Y20955000D01*
X20955000Y24765000D02*
X17145000Y20955000D01*
X20955000Y26035000D02*
X20955000Y27940000D01*
X20955000Y29845000D02*
X20955000Y26035000D01*
X55245000Y28575000D02*
X54610000Y27940000D01*
X55245000Y29845000D02*
X55245000Y28575000D01*
X54610000Y27940000D02*
X51435000Y27940000D01*
X51435000Y27940000D02*
X47625000Y31750000D01*
X47625000Y31750000D02*
X22860000Y31750000D01*
X22860000Y31750000D02*
X20955000Y29845000D01*
G04 #@! TO.N,/RUDDER_SENSE*
X14605000Y9525000D02*
X14605000Y6985000D01*
X17145000Y12065000D02*
X14605000Y9525000D01*
X17145000Y18415000D02*
X17145000Y12065000D01*
X23495000Y26035000D02*
X23495000Y24765000D01*
X23495000Y24765000D02*
X17145000Y18415000D01*
G04 #@! TO.N,/TEMP_CNTRL*
X26035000Y26035000D02*
X26035000Y23495000D01*
X26035000Y23495000D02*
X24765000Y22225000D01*
X24765000Y22225000D02*
X24765000Y10795000D01*
X26035000Y9525000D02*
X26035000Y6985000D01*
X24765000Y10795000D02*
X26035000Y9525000D01*
X27305000Y15875000D02*
X24765000Y15875000D01*
G04 #@! TO.N,/H_ENABLE*
X64135000Y12065000D02*
X64135000Y14605000D01*
X33020000Y36830000D02*
X31115000Y38735000D01*
X50165000Y36830000D02*
X33020000Y36830000D01*
X60325000Y14605000D02*
X59690000Y15240000D01*
X64135000Y14605000D02*
X60325000Y14605000D01*
X31115000Y38735000D02*
X31115000Y41275000D01*
X59690000Y15240000D02*
X59690000Y32385000D01*
X59690000Y32385000D02*
X57785000Y34290000D01*
X57785000Y34290000D02*
X52705000Y34290000D01*
X52705000Y34290000D02*
X50165000Y36830000D01*
G04 #@! TO.N,/TEMP_MOTOR*
X34925000Y6985000D02*
X34925000Y9525000D01*
X34925000Y9525000D02*
X29845000Y14605000D01*
X29845000Y19685000D02*
X28575000Y20955000D01*
X28575000Y20955000D02*
X28575000Y26035000D01*
X27305000Y18415000D02*
X29845000Y18415000D01*
X29845000Y14605000D02*
X29845000Y18415000D01*
X29845000Y18415000D02*
X29845000Y19685000D01*
G04 #@! TO.N,/H_RPWM*
X49530000Y35560000D02*
X31115000Y35560000D01*
X28575000Y38100000D02*
X28575000Y41275000D01*
X59055000Y9525000D02*
X58420000Y10160000D01*
X31115000Y35560000D02*
X28575000Y38100000D01*
X64135000Y9525000D02*
X59055000Y9525000D01*
X58420000Y10160000D02*
X58420000Y31750000D01*
X58420000Y31750000D02*
X57150000Y33020000D01*
X57150000Y33020000D02*
X52070000Y33020000D01*
X52070000Y33020000D02*
X49530000Y35560000D01*
G04 #@! TO.N,/VOLTAGE_SENSE*
X31115000Y23495000D02*
X31115000Y26035000D01*
X33655000Y20955000D02*
X31115000Y23495000D01*
X33655000Y20955000D02*
X43815000Y20955000D01*
X46355000Y20955000D02*
X43815000Y20955000D01*
G04 #@! TO.N,/H_LPWM*
X26035000Y40143630D02*
X26035000Y41275000D01*
X26035000Y36830000D02*
X26035000Y40143630D01*
X28575000Y34290000D02*
X26035000Y36830000D01*
X48895000Y34290000D02*
X28575000Y34290000D01*
X59690000Y6985000D02*
X57150000Y9525000D01*
X64135000Y6985000D02*
X59690000Y6985000D01*
X57150000Y9525000D02*
X57150000Y31115000D01*
X57150000Y31115000D02*
X56515000Y31750000D01*
X56515000Y31750000D02*
X51435000Y31750000D01*
X51435000Y31750000D02*
X48895000Y34290000D01*
G04 #@! TO.N,+5V*
X34925000Y18415000D02*
X34925000Y15875000D01*
X38735000Y26035000D02*
X38735000Y24765000D01*
X38735000Y24765000D02*
X40005000Y23495000D01*
X40005000Y23495000D02*
X48895000Y23495000D01*
X48895000Y23495000D02*
X50165000Y22225000D01*
X50165000Y22225000D02*
X50165000Y19685000D01*
X50165000Y19685000D02*
X48895000Y18415000D01*
X48895000Y18415000D02*
X34925000Y18415000D01*
X17145000Y8635000D02*
X20575000Y12065000D01*
X17145000Y6985000D02*
X17145000Y8635000D01*
X20575000Y12065000D02*
X20575000Y12065000D01*
X34925000Y12065000D02*
X34925000Y15875000D01*
X64135000Y47625000D02*
X60960000Y47625000D01*
X60960000Y49290000D02*
X60960000Y47625000D01*
X67945000Y22225000D02*
X64135000Y22225000D01*
X64135000Y47625000D02*
X67945000Y47625000D01*
X67945000Y47625000D02*
X67945000Y22225000D01*
X60960000Y47625000D02*
X48895000Y47625000D01*
X48895000Y47625000D02*
X48895000Y47625000D01*
X48895000Y23495000D02*
X48895000Y23495000D01*
X10795000Y97155000D02*
X4445000Y97155000D01*
X10795000Y94615000D02*
X10795000Y97155000D01*
X4445000Y97155000D02*
X4445000Y5715000D01*
X4445000Y5715000D02*
X6985000Y3175000D01*
X6985000Y3175000D02*
X66675000Y3175000D01*
X67945000Y4445000D02*
X67945000Y22225000D01*
X66675000Y3175000D02*
X67945000Y4445000D01*
G04 #@! TO.N,/RESET*
X26035000Y66040000D02*
X26035000Y70485000D01*
X23495000Y63500000D02*
X26035000Y66040000D01*
X23495000Y52705000D02*
X23495000Y63500000D01*
X18415000Y41275000D02*
X18415000Y47625000D01*
X18415000Y47625000D02*
X23495000Y52705000D01*
G04 #@! TO.N,/CS*
X15875000Y41275000D02*
X15875000Y48895000D01*
X18415000Y51435000D02*
X15875000Y48895000D01*
X18415000Y59055000D02*
X18415000Y51435000D01*
G04 #@! TO.N,/MOSI*
X13335000Y47625000D02*
X13335000Y41275000D01*
G04 #@! TO.N,/MISO*
X10795000Y41275000D02*
X10795000Y47625000D01*
G04 #@! TO.N,/SCK*
X6985000Y59055000D02*
X6985000Y29845000D01*
X9525000Y61595000D02*
X6985000Y59055000D01*
X9525000Y67945000D02*
X9525000Y61595000D01*
X6985000Y29845000D02*
X10795000Y26035000D01*
X19685000Y84455000D02*
X20320000Y83820000D01*
X18415000Y84455000D02*
X19685000Y84455000D01*
X20320000Y83820000D02*
X20320000Y73025000D01*
X20320000Y73025000D02*
X19685000Y72390000D01*
X19685000Y72390000D02*
X13970000Y72390000D01*
X13970000Y72390000D02*
X9525000Y67945000D01*
G04 #@! TO.N,+BATT*
X43815000Y6985000D02*
X43815000Y13335000D01*
G04 #@! TO.N,Net-(J2-Pad6)*
X20955000Y94615000D02*
X20955000Y90805000D01*
X20955000Y90805000D02*
X20955000Y87630000D01*
X20955000Y87630000D02*
X21590000Y86995000D01*
X21590000Y86995000D02*
X21590000Y71120000D01*
X20955000Y70485000D02*
X18415000Y70485000D01*
X21590000Y71120000D02*
X20955000Y70485000D01*
G04 #@! TO.N,Net-(J2-Pad7)*
X24765000Y78105000D02*
X26035000Y78105000D01*
X22860000Y86360000D02*
X22860000Y80010000D01*
X23495000Y94615000D02*
X23495000Y86995000D01*
X23495000Y86995000D02*
X22860000Y86360000D01*
X18415000Y64135000D02*
X22860000Y68580000D01*
X15875000Y64135000D02*
X18415000Y64135000D01*
X10795000Y55245000D02*
X10795000Y59055000D01*
X10795000Y59055000D02*
X15875000Y64135000D01*
X24765000Y78105000D02*
X22860000Y78105000D01*
X22860000Y68580000D02*
X22860000Y78105000D01*
X22860000Y78105000D02*
X22860000Y80010000D01*
G04 #@! TO.N,Net-(J2-Pad8)*
X26035000Y94615000D02*
X26035000Y86995000D01*
X17145000Y62865000D02*
X13335000Y59055000D01*
X19685000Y62865000D02*
X17145000Y62865000D01*
X24130000Y67310000D02*
X19685000Y62865000D01*
X24130000Y76200000D02*
X24130000Y67310000D01*
X27305000Y76200000D02*
X24130000Y76200000D01*
X27940000Y79375000D02*
X27940000Y76835000D01*
X13335000Y59055000D02*
X13335000Y55245000D01*
X25045051Y86995000D02*
X24130000Y86079949D01*
X24130000Y86079949D02*
X24130000Y80645000D01*
X27940000Y76835000D02*
X27305000Y76200000D01*
X24130000Y80645000D02*
X24765000Y80010000D01*
X26035000Y86995000D02*
X25045051Y86995000D01*
X24765000Y80010000D02*
X27305000Y80010000D01*
X27305000Y80010000D02*
X27940000Y79375000D01*
G04 #@! TO.N,Net-(J2-Pad9)*
X28575000Y94615000D02*
X28575000Y83185000D01*
X28575000Y83185000D02*
X26035000Y83185000D01*
X26035000Y83185000D02*
X26035000Y84455000D01*
X26035000Y81915000D02*
X26035000Y83185000D01*
G04 #@! TO.N,Net-(J2-Pad10)*
X26035000Y62865000D02*
X26035000Y59055000D01*
X28575000Y65405000D02*
X26035000Y62865000D01*
X31115000Y94615000D02*
X31115000Y78105000D01*
X31115000Y78105000D02*
X28575000Y75565000D01*
X28575000Y73025000D02*
X28575000Y65405000D01*
X26035000Y74295000D02*
X28575000Y74295000D01*
X28575000Y75565000D02*
X28575000Y74295000D01*
X28575000Y74295000D02*
X28575000Y73025000D01*
G04 #@! TO.N,Net-(J4-Pad5)*
X64135000Y17145000D02*
X61595000Y17145000D01*
X61595000Y17145000D02*
X60960000Y17780000D01*
X60960000Y17780000D02*
X60960000Y33020000D01*
X60960000Y33020000D02*
X58420000Y35560000D01*
X58420000Y35560000D02*
X53340000Y35560000D01*
X52705000Y36195000D02*
X52705000Y37465000D01*
X53340000Y35560000D02*
X52705000Y36195000D01*
G04 #@! TO.N,Net-(J4-Pad6)*
X64135000Y19685000D02*
X62865000Y19685000D01*
X62865000Y19685000D02*
X62230000Y20320000D01*
X62230000Y20320000D02*
X62230000Y33655000D01*
X62230000Y33655000D02*
X58420000Y37465000D01*
X58420000Y37465000D02*
X55245000Y37465000D01*
G04 #@! TD*
D21*
G04 #@! TO.N,GND*
G36*
X69600000Y3425000D02*
X68268503Y3425000D01*
X68550594Y3707091D01*
X68629911Y3760089D01*
X68682909Y3839406D01*
X68682911Y3839408D01*
X68839879Y4074328D01*
X68839880Y4074329D01*
X68895000Y4351436D01*
X68895000Y4351440D01*
X68913610Y4444999D01*
X68895000Y4538558D01*
X68895000Y22131436D01*
X68913611Y22225000D01*
X68895000Y22318564D01*
X68895000Y47531436D01*
X68913611Y47625000D01*
X68839880Y47995671D01*
X68629911Y48309911D01*
X68315671Y48519880D01*
X68038564Y48575000D01*
X67945000Y48593611D01*
X67851436Y48575000D01*
X65183995Y48575000D01*
X65144343Y48634343D01*
X64754244Y48895000D01*
X65144343Y49155657D01*
X65453771Y49618747D01*
X65562427Y50165000D01*
X65453771Y50711253D01*
X65235076Y51038552D01*
X65466486Y51134405D01*
X65705595Y51373513D01*
X65835000Y51685924D01*
X65835000Y52342500D01*
X65622500Y52555000D01*
X64285000Y52555000D01*
X64285000Y52535000D01*
X63985000Y52535000D01*
X63985000Y52555000D01*
X62647500Y52555000D01*
X62435000Y52342500D01*
X62435000Y51685924D01*
X62564405Y51373513D01*
X62803514Y51134405D01*
X63034924Y51038552D01*
X62816229Y50711253D01*
X62707573Y50165000D01*
X62816229Y49618747D01*
X63125657Y49155657D01*
X63515756Y48895000D01*
X63125657Y48634343D01*
X63086005Y48575000D01*
X61910000Y48575000D01*
X61910000Y48659583D01*
X61935010Y48697013D01*
X61995775Y49002500D01*
X61995775Y49577500D01*
X61946633Y49824552D01*
X62155595Y50033514D01*
X62285000Y50345925D01*
X62285000Y50677500D01*
X62072500Y50890000D01*
X61110000Y50890000D01*
X61110000Y50870000D01*
X60810000Y50870000D01*
X60810000Y50890000D01*
X59847500Y50890000D01*
X59635000Y50677500D01*
X59635000Y50345925D01*
X59764405Y50033514D01*
X59973367Y49824552D01*
X59924225Y49577500D01*
X59924225Y49002500D01*
X59984990Y48697013D01*
X60010000Y48659582D01*
X60010000Y48575000D01*
X50137030Y48575000D01*
X49773004Y48939026D01*
X49203314Y49175000D01*
X48586686Y49175000D01*
X48016996Y48939026D01*
X47580974Y48503004D01*
X47345000Y47933314D01*
X47345000Y47316686D01*
X47580974Y46746996D01*
X48016996Y46310974D01*
X48586686Y46075000D01*
X49203314Y46075000D01*
X49773004Y46310974D01*
X50137030Y46675000D01*
X60866436Y46675000D01*
X60960000Y46656389D01*
X61053564Y46675000D01*
X63086005Y46675000D01*
X63125657Y46615657D01*
X63515756Y46355000D01*
X63125657Y46094343D01*
X63086005Y46035000D01*
X45178558Y46035000D01*
X45084999Y46053610D01*
X44991440Y46035000D01*
X44991436Y46035000D01*
X44714329Y45979880D01*
X44714327Y45979879D01*
X44714328Y45979879D01*
X44479408Y45822911D01*
X44479406Y45822909D01*
X44400089Y45769911D01*
X44347091Y45690594D01*
X43209407Y44552909D01*
X43130090Y44499911D01*
X43077092Y44420594D01*
X43077089Y44420591D01*
X42920121Y44185671D01*
X42846390Y43815000D01*
X42865001Y43721436D01*
X42865000Y42263862D01*
X42841704Y42248296D01*
X42545000Y41804246D01*
X42248296Y42248296D01*
X41801744Y42546672D01*
X41407963Y42625000D01*
X41142037Y42625000D01*
X40748256Y42546672D01*
X40301704Y42248296D01*
X40162879Y42040530D01*
X40057665Y42261454D01*
X39579484Y42692527D01*
X39140201Y42874473D01*
X38885000Y42704652D01*
X38885000Y41425000D01*
X38905000Y41425000D01*
X38905000Y41125000D01*
X38885000Y41125000D01*
X38885000Y39845348D01*
X39140201Y39675527D01*
X39579484Y39857473D01*
X40057665Y40288546D01*
X40162879Y40509470D01*
X40301704Y40301704D01*
X40748256Y40003328D01*
X41142037Y39925000D01*
X41407963Y39925000D01*
X41801744Y40003328D01*
X42248296Y40301704D01*
X42545000Y40745754D01*
X42841704Y40301704D01*
X43288256Y40003328D01*
X43682037Y39925000D01*
X43947963Y39925000D01*
X44341744Y40003328D01*
X44788296Y40301704D01*
X44994225Y40609899D01*
X44994225Y40475000D01*
X45036911Y40260401D01*
X45158472Y40078472D01*
X45340401Y39956911D01*
X45555000Y39914225D01*
X47155000Y39914225D01*
X47369599Y39956911D01*
X47551528Y40078472D01*
X47673089Y40260401D01*
X47715775Y40475000D01*
X47715775Y42075000D01*
X47673089Y42289599D01*
X47551528Y42471528D01*
X47369599Y42593089D01*
X47305000Y42605938D01*
X47305000Y42786498D01*
X47383503Y42865000D01*
X61201498Y42865000D01*
X62127091Y41939406D01*
X62180089Y41860089D01*
X62259406Y41807091D01*
X62259408Y41807089D01*
X62410772Y41705951D01*
X62494329Y41650120D01*
X62771436Y41595000D01*
X62771440Y41595000D01*
X62864999Y41576390D01*
X62958558Y41595000D01*
X63086005Y41595000D01*
X63125657Y41535657D01*
X63515756Y41275000D01*
X63125657Y41014343D01*
X62816229Y40551253D01*
X62707573Y40005000D01*
X62816229Y39458747D01*
X63125657Y38995657D01*
X63588747Y38686229D01*
X63997115Y38605000D01*
X64272885Y38605000D01*
X64681253Y38686229D01*
X65144343Y38995657D01*
X65453771Y39458747D01*
X65562427Y40005000D01*
X65453771Y40551253D01*
X65144343Y41014343D01*
X64754244Y41275000D01*
X65144343Y41535657D01*
X65453771Y41998747D01*
X65562427Y42545000D01*
X65453771Y43091253D01*
X65144343Y43554343D01*
X64754244Y43815000D01*
X65144343Y44075657D01*
X65453771Y44538747D01*
X65562427Y45085000D01*
X65453771Y45631253D01*
X65144343Y46094343D01*
X64754244Y46355000D01*
X65144343Y46615657D01*
X65183995Y46675000D01*
X66995000Y46675000D01*
X66995001Y23175000D01*
X65183995Y23175000D01*
X65144343Y23234343D01*
X65000970Y23330142D01*
X65147684Y23399531D01*
X65593140Y23891009D01*
X65784056Y24351945D01*
X65614918Y24615000D01*
X64285000Y24615000D01*
X64285000Y24595000D01*
X63985000Y24595000D01*
X63985000Y24615000D01*
X63965000Y24615000D01*
X63965000Y24915000D01*
X63985000Y24915000D01*
X63985000Y26245879D01*
X64285000Y26245879D01*
X64285000Y24915000D01*
X65614918Y24915000D01*
X65784056Y25178055D01*
X65593140Y25638991D01*
X65147684Y26130469D01*
X64548056Y26414066D01*
X64285000Y26245879D01*
X63985000Y26245879D01*
X63721944Y26414066D01*
X63180000Y26157751D01*
X63180000Y33561441D01*
X63198610Y33655000D01*
X63180000Y33748559D01*
X63180000Y33748564D01*
X63124880Y34025671D01*
X63069049Y34109228D01*
X62967911Y34260592D01*
X62967909Y34260594D01*
X62914911Y34339911D01*
X62835594Y34392909D01*
X59157911Y38070591D01*
X59104911Y38149911D01*
X58790671Y38359880D01*
X58513564Y38415000D01*
X58513559Y38415000D01*
X58420000Y38433610D01*
X58326441Y38415000D01*
X56073163Y38415000D01*
X55732725Y38642473D01*
X55368109Y38715000D01*
X55121891Y38715000D01*
X54757275Y38642473D01*
X54343801Y38366199D01*
X54067527Y37952725D01*
X53975000Y37487563D01*
X53882473Y37952725D01*
X53606199Y38366199D01*
X53192725Y38642473D01*
X52828109Y38715000D01*
X52581891Y38715000D01*
X52217275Y38642473D01*
X51803801Y38366199D01*
X51527527Y37952725D01*
X51430512Y37465000D01*
X51527527Y36977275D01*
X51755000Y36636836D01*
X51755000Y36583502D01*
X50902910Y37435592D01*
X50849911Y37514911D01*
X50535671Y37724880D01*
X50258564Y37780000D01*
X50258559Y37780000D01*
X50165000Y37798610D01*
X50071441Y37780000D01*
X33413503Y37780000D01*
X32065000Y39128502D01*
X32065000Y40286138D01*
X32088296Y40301704D01*
X32385000Y40745754D01*
X32681704Y40301704D01*
X33128256Y40003328D01*
X33522037Y39925000D01*
X33787963Y39925000D01*
X34181744Y40003328D01*
X34628296Y40301704D01*
X34925000Y40745754D01*
X35221704Y40301704D01*
X35668256Y40003328D01*
X36062037Y39925000D01*
X36327963Y39925000D01*
X36721744Y40003328D01*
X37168296Y40301704D01*
X37307121Y40509470D01*
X37412335Y40288546D01*
X37890516Y39857473D01*
X38329799Y39675527D01*
X38585000Y39845348D01*
X38585000Y41125000D01*
X38565000Y41125000D01*
X38565000Y41425000D01*
X38585000Y41425000D01*
X38585000Y42704652D01*
X38329799Y42874473D01*
X37890516Y42692527D01*
X37412335Y42261454D01*
X37307121Y42040530D01*
X37168296Y42248296D01*
X36721744Y42546672D01*
X36327963Y42625000D01*
X36062037Y42625000D01*
X35668256Y42546672D01*
X35221704Y42248296D01*
X34925000Y41804246D01*
X34628296Y42248296D01*
X34181744Y42546672D01*
X33787963Y42625000D01*
X33522037Y42625000D01*
X33128256Y42546672D01*
X32681704Y42248296D01*
X32385000Y41804246D01*
X32088296Y42248296D01*
X31641744Y42546672D01*
X31247963Y42625000D01*
X30982037Y42625000D01*
X30588256Y42546672D01*
X30141704Y42248296D01*
X29845000Y41804246D01*
X29548296Y42248296D01*
X29101744Y42546672D01*
X28707963Y42625000D01*
X28442037Y42625000D01*
X28048256Y42546672D01*
X27601704Y42248296D01*
X27305000Y41804246D01*
X27008296Y42248296D01*
X26561744Y42546672D01*
X26167963Y42625000D01*
X25902037Y42625000D01*
X25508256Y42546672D01*
X25061704Y42248296D01*
X24765000Y41804246D01*
X24468296Y42248296D01*
X24021744Y42546672D01*
X23627963Y42625000D01*
X23362037Y42625000D01*
X22968256Y42546672D01*
X22521704Y42248296D01*
X22225000Y41804246D01*
X21928296Y42248296D01*
X21481744Y42546672D01*
X21087963Y42625000D01*
X20822037Y42625000D01*
X20428256Y42546672D01*
X19981704Y42248296D01*
X19685000Y41804246D01*
X19388296Y42248296D01*
X19365000Y42263862D01*
X19365000Y47231498D01*
X23867577Y51734075D01*
X59635000Y51734075D01*
X59635000Y51402500D01*
X59847500Y51190000D01*
X60810000Y51190000D01*
X60810000Y52202500D01*
X61110000Y52202500D01*
X61110000Y51190000D01*
X62072500Y51190000D01*
X62285000Y51402500D01*
X62285000Y51734075D01*
X62155595Y52046486D01*
X61916487Y52285595D01*
X61604076Y52415000D01*
X61322500Y52415000D01*
X61110000Y52202500D01*
X60810000Y52202500D01*
X60597500Y52415000D01*
X60315924Y52415000D01*
X60003513Y52285595D01*
X59764405Y52046486D01*
X59635000Y51734075D01*
X23867577Y51734075D01*
X24100594Y51967091D01*
X24179911Y52020089D01*
X24232909Y52099406D01*
X24232911Y52099408D01*
X24357317Y52285595D01*
X24389880Y52334329D01*
X24445000Y52611436D01*
X24445000Y52611441D01*
X24463610Y52705000D01*
X24445000Y52798559D01*
X24445000Y53724076D01*
X62435000Y53724076D01*
X62435000Y53067500D01*
X62647500Y52855000D01*
X63985000Y52855000D01*
X63985000Y54192500D01*
X64285000Y54192500D01*
X64285000Y52855000D01*
X65622500Y52855000D01*
X65835000Y53067500D01*
X65835000Y53724076D01*
X65705595Y54036487D01*
X65466486Y54275595D01*
X65154075Y54405000D01*
X64497500Y54405000D01*
X64285000Y54192500D01*
X63985000Y54192500D01*
X63772500Y54405000D01*
X63115925Y54405000D01*
X62803514Y54275595D01*
X62564405Y54036487D01*
X62435000Y53724076D01*
X24445000Y53724076D01*
X24445000Y63106498D01*
X26640594Y65302091D01*
X26719911Y65355089D01*
X26929880Y65669329D01*
X26985000Y65946436D01*
X26985000Y65946440D01*
X27003610Y66039999D01*
X26985000Y66133558D01*
X26985000Y69656837D01*
X27212473Y69997275D01*
X27309488Y70485000D01*
X27212473Y70972725D01*
X26936199Y71386199D01*
X26522725Y71662473D01*
X26158109Y71735000D01*
X25911891Y71735000D01*
X25547275Y71662473D01*
X25133801Y71386199D01*
X25080000Y71305680D01*
X25080000Y73482233D01*
X25326932Y73235301D01*
X25786360Y73045000D01*
X26283640Y73045000D01*
X26743068Y73235301D01*
X26852767Y73345000D01*
X27625001Y73345000D01*
X27625001Y73118567D01*
X27625000Y73118563D01*
X27625001Y65798504D01*
X25429409Y63602911D01*
X25350089Y63549911D01*
X25140120Y63235670D01*
X25085000Y62958563D01*
X25085000Y62958559D01*
X25066390Y62865000D01*
X25085000Y62771441D01*
X25085001Y59883164D01*
X24857527Y59542725D01*
X24760512Y59055000D01*
X24857527Y58567275D01*
X25133801Y58153801D01*
X25547275Y57877527D01*
X25911891Y57805000D01*
X26158109Y57805000D01*
X26522725Y57877527D01*
X26936199Y58153801D01*
X27212473Y58567275D01*
X27309488Y59055000D01*
X27212473Y59542725D01*
X26985000Y59883163D01*
X26985000Y62471498D01*
X29180594Y64667091D01*
X29259911Y64720089D01*
X29466907Y65029879D01*
X29469879Y65034327D01*
X29469879Y65034328D01*
X29469880Y65034329D01*
X29525000Y65311436D01*
X29525000Y65311440D01*
X29543610Y65404999D01*
X29525000Y65498558D01*
X29525000Y74201436D01*
X29543611Y74295000D01*
X29525000Y74388564D01*
X29525000Y75171498D01*
X31720594Y77367091D01*
X31799911Y77420089D01*
X31902024Y77572911D01*
X32009879Y77734327D01*
X32009879Y77734328D01*
X32009880Y77734329D01*
X32065000Y78011436D01*
X32065000Y78011440D01*
X32083610Y78104999D01*
X32065000Y78198558D01*
X32065000Y93566005D01*
X32124343Y93605657D01*
X32385000Y93995756D01*
X32645657Y93605657D01*
X33108747Y93296229D01*
X33517115Y93215000D01*
X33792885Y93215000D01*
X34201253Y93296229D01*
X34664343Y93605657D01*
X34925000Y93995756D01*
X35185657Y93605657D01*
X35648747Y93296229D01*
X36057115Y93215000D01*
X36332885Y93215000D01*
X36741253Y93296229D01*
X37204343Y93605657D01*
X37465000Y93995756D01*
X37725657Y93605657D01*
X38188747Y93296229D01*
X38597115Y93215000D01*
X38872885Y93215000D01*
X39281253Y93296229D01*
X39744343Y93605657D01*
X40005000Y93995756D01*
X40265657Y93605657D01*
X40728747Y93296229D01*
X41137115Y93215000D01*
X41412885Y93215000D01*
X41821253Y93296229D01*
X42284343Y93605657D01*
X42545000Y93995756D01*
X42805657Y93605657D01*
X42865000Y93566005D01*
X42865001Y74053504D01*
X37036498Y68225000D01*
X36521686Y68225000D01*
X35951996Y67989026D01*
X35515974Y67553004D01*
X35280000Y66983314D01*
X35280000Y66366686D01*
X35515974Y65796996D01*
X35951996Y65360974D01*
X36521686Y65125000D01*
X37138314Y65125000D01*
X37708004Y65360974D01*
X38144026Y65796996D01*
X38380000Y66366686D01*
X38380000Y66881498D01*
X44420594Y72922091D01*
X44499911Y72975089D01*
X44552909Y73054406D01*
X44552911Y73054408D01*
X44654049Y73205772D01*
X44709880Y73289329D01*
X44765000Y73566436D01*
X44765000Y73566441D01*
X44783610Y73660000D01*
X44765000Y73753559D01*
X44765000Y93566005D01*
X44824343Y93605657D01*
X44920142Y93749030D01*
X44989531Y93602316D01*
X45481009Y93156860D01*
X45941945Y92965944D01*
X46205000Y93135082D01*
X46205000Y94465000D01*
X46505000Y94465000D01*
X46505000Y93135082D01*
X46768055Y92965944D01*
X47228991Y93156860D01*
X47720469Y93602316D01*
X48004066Y94201944D01*
X47835879Y94465000D01*
X46505000Y94465000D01*
X46205000Y94465000D01*
X46185000Y94465000D01*
X46185000Y94765000D01*
X46205000Y94765000D01*
X46205000Y96094918D01*
X46505000Y96094918D01*
X46505000Y94765000D01*
X47835879Y94765000D01*
X48004066Y95028056D01*
X47720469Y95627684D01*
X47228991Y96073140D01*
X46768055Y96264056D01*
X46505000Y96094918D01*
X46205000Y96094918D01*
X45941945Y96264056D01*
X45481009Y96073140D01*
X44989531Y95627684D01*
X44920142Y95480970D01*
X44824343Y95624343D01*
X44361253Y95933771D01*
X43952885Y96015000D01*
X43677115Y96015000D01*
X43268747Y95933771D01*
X42805657Y95624343D01*
X42545000Y95234244D01*
X42284343Y95624343D01*
X41821253Y95933771D01*
X41412885Y96015000D01*
X41137115Y96015000D01*
X40728747Y95933771D01*
X40265657Y95624343D01*
X40005000Y95234244D01*
X39744343Y95624343D01*
X39281253Y95933771D01*
X38872885Y96015000D01*
X38597115Y96015000D01*
X38188747Y95933771D01*
X37725657Y95624343D01*
X37465000Y95234244D01*
X37204343Y95624343D01*
X36741253Y95933771D01*
X36332885Y96015000D01*
X36057115Y96015000D01*
X35648747Y95933771D01*
X35185657Y95624343D01*
X34925000Y95234244D01*
X34664343Y95624343D01*
X34201253Y95933771D01*
X33792885Y96015000D01*
X33517115Y96015000D01*
X33108747Y95933771D01*
X32645657Y95624343D01*
X32385000Y95234244D01*
X32124343Y95624343D01*
X31661253Y95933771D01*
X31252885Y96015000D01*
X30977115Y96015000D01*
X30568747Y95933771D01*
X30105657Y95624343D01*
X29845000Y95234244D01*
X29584343Y95624343D01*
X29121253Y95933771D01*
X28712885Y96015000D01*
X28437115Y96015000D01*
X28028747Y95933771D01*
X27565657Y95624343D01*
X27305000Y95234244D01*
X27044343Y95624343D01*
X26581253Y95933771D01*
X26172885Y96015000D01*
X25897115Y96015000D01*
X25488747Y95933771D01*
X25025657Y95624343D01*
X24765000Y95234244D01*
X24504343Y95624343D01*
X24041253Y95933771D01*
X23632885Y96015000D01*
X23357115Y96015000D01*
X22948747Y95933771D01*
X22485657Y95624343D01*
X22225000Y95234244D01*
X21964343Y95624343D01*
X21501253Y95933771D01*
X21092885Y96015000D01*
X20817115Y96015000D01*
X20408747Y95933771D01*
X19945657Y95624343D01*
X19685000Y95234244D01*
X19424343Y95624343D01*
X18961253Y95933771D01*
X18552885Y96015000D01*
X18277115Y96015000D01*
X17868747Y95933771D01*
X17405657Y95624343D01*
X17145000Y95234244D01*
X16884343Y95624343D01*
X16421253Y95933771D01*
X16012885Y96015000D01*
X15737115Y96015000D01*
X15328747Y95933771D01*
X14865657Y95624343D01*
X14605000Y95234244D01*
X14344343Y95624343D01*
X13881253Y95933771D01*
X13472885Y96015000D01*
X13197115Y96015000D01*
X12788747Y95933771D01*
X12325657Y95624343D01*
X12065000Y95234244D01*
X11804343Y95624343D01*
X11745000Y95663995D01*
X11745000Y97061436D01*
X11763611Y97155000D01*
X11689880Y97525671D01*
X11680306Y97540000D01*
X69600000Y97540000D01*
X69600000Y3425000D01*
X69600000Y3425000D01*
G37*
X69600000Y3425000D02*
X68268503Y3425000D01*
X68550594Y3707091D01*
X68629911Y3760089D01*
X68682909Y3839406D01*
X68682911Y3839408D01*
X68839879Y4074328D01*
X68839880Y4074329D01*
X68895000Y4351436D01*
X68895000Y4351440D01*
X68913610Y4444999D01*
X68895000Y4538558D01*
X68895000Y22131436D01*
X68913611Y22225000D01*
X68895000Y22318564D01*
X68895000Y47531436D01*
X68913611Y47625000D01*
X68839880Y47995671D01*
X68629911Y48309911D01*
X68315671Y48519880D01*
X68038564Y48575000D01*
X67945000Y48593611D01*
X67851436Y48575000D01*
X65183995Y48575000D01*
X65144343Y48634343D01*
X64754244Y48895000D01*
X65144343Y49155657D01*
X65453771Y49618747D01*
X65562427Y50165000D01*
X65453771Y50711253D01*
X65235076Y51038552D01*
X65466486Y51134405D01*
X65705595Y51373513D01*
X65835000Y51685924D01*
X65835000Y52342500D01*
X65622500Y52555000D01*
X64285000Y52555000D01*
X64285000Y52535000D01*
X63985000Y52535000D01*
X63985000Y52555000D01*
X62647500Y52555000D01*
X62435000Y52342500D01*
X62435000Y51685924D01*
X62564405Y51373513D01*
X62803514Y51134405D01*
X63034924Y51038552D01*
X62816229Y50711253D01*
X62707573Y50165000D01*
X62816229Y49618747D01*
X63125657Y49155657D01*
X63515756Y48895000D01*
X63125657Y48634343D01*
X63086005Y48575000D01*
X61910000Y48575000D01*
X61910000Y48659583D01*
X61935010Y48697013D01*
X61995775Y49002500D01*
X61995775Y49577500D01*
X61946633Y49824552D01*
X62155595Y50033514D01*
X62285000Y50345925D01*
X62285000Y50677500D01*
X62072500Y50890000D01*
X61110000Y50890000D01*
X61110000Y50870000D01*
X60810000Y50870000D01*
X60810000Y50890000D01*
X59847500Y50890000D01*
X59635000Y50677500D01*
X59635000Y50345925D01*
X59764405Y50033514D01*
X59973367Y49824552D01*
X59924225Y49577500D01*
X59924225Y49002500D01*
X59984990Y48697013D01*
X60010000Y48659582D01*
X60010000Y48575000D01*
X50137030Y48575000D01*
X49773004Y48939026D01*
X49203314Y49175000D01*
X48586686Y49175000D01*
X48016996Y48939026D01*
X47580974Y48503004D01*
X47345000Y47933314D01*
X47345000Y47316686D01*
X47580974Y46746996D01*
X48016996Y46310974D01*
X48586686Y46075000D01*
X49203314Y46075000D01*
X49773004Y46310974D01*
X50137030Y46675000D01*
X60866436Y46675000D01*
X60960000Y46656389D01*
X61053564Y46675000D01*
X63086005Y46675000D01*
X63125657Y46615657D01*
X63515756Y46355000D01*
X63125657Y46094343D01*
X63086005Y46035000D01*
X45178558Y46035000D01*
X45084999Y46053610D01*
X44991440Y46035000D01*
X44991436Y46035000D01*
X44714329Y45979880D01*
X44714327Y45979879D01*
X44714328Y45979879D01*
X44479408Y45822911D01*
X44479406Y45822909D01*
X44400089Y45769911D01*
X44347091Y45690594D01*
X43209407Y44552909D01*
X43130090Y44499911D01*
X43077092Y44420594D01*
X43077089Y44420591D01*
X42920121Y44185671D01*
X42846390Y43815000D01*
X42865001Y43721436D01*
X42865000Y42263862D01*
X42841704Y42248296D01*
X42545000Y41804246D01*
X42248296Y42248296D01*
X41801744Y42546672D01*
X41407963Y42625000D01*
X41142037Y42625000D01*
X40748256Y42546672D01*
X40301704Y42248296D01*
X40162879Y42040530D01*
X40057665Y42261454D01*
X39579484Y42692527D01*
X39140201Y42874473D01*
X38885000Y42704652D01*
X38885000Y41425000D01*
X38905000Y41425000D01*
X38905000Y41125000D01*
X38885000Y41125000D01*
X38885000Y39845348D01*
X39140201Y39675527D01*
X39579484Y39857473D01*
X40057665Y40288546D01*
X40162879Y40509470D01*
X40301704Y40301704D01*
X40748256Y40003328D01*
X41142037Y39925000D01*
X41407963Y39925000D01*
X41801744Y40003328D01*
X42248296Y40301704D01*
X42545000Y40745754D01*
X42841704Y40301704D01*
X43288256Y40003328D01*
X43682037Y39925000D01*
X43947963Y39925000D01*
X44341744Y40003328D01*
X44788296Y40301704D01*
X44994225Y40609899D01*
X44994225Y40475000D01*
X45036911Y40260401D01*
X45158472Y40078472D01*
X45340401Y39956911D01*
X45555000Y39914225D01*
X47155000Y39914225D01*
X47369599Y39956911D01*
X47551528Y40078472D01*
X47673089Y40260401D01*
X47715775Y40475000D01*
X47715775Y42075000D01*
X47673089Y42289599D01*
X47551528Y42471528D01*
X47369599Y42593089D01*
X47305000Y42605938D01*
X47305000Y42786498D01*
X47383503Y42865000D01*
X61201498Y42865000D01*
X62127091Y41939406D01*
X62180089Y41860089D01*
X62259406Y41807091D01*
X62259408Y41807089D01*
X62410772Y41705951D01*
X62494329Y41650120D01*
X62771436Y41595000D01*
X62771440Y41595000D01*
X62864999Y41576390D01*
X62958558Y41595000D01*
X63086005Y41595000D01*
X63125657Y41535657D01*
X63515756Y41275000D01*
X63125657Y41014343D01*
X62816229Y40551253D01*
X62707573Y40005000D01*
X62816229Y39458747D01*
X63125657Y38995657D01*
X63588747Y38686229D01*
X63997115Y38605000D01*
X64272885Y38605000D01*
X64681253Y38686229D01*
X65144343Y38995657D01*
X65453771Y39458747D01*
X65562427Y40005000D01*
X65453771Y40551253D01*
X65144343Y41014343D01*
X64754244Y41275000D01*
X65144343Y41535657D01*
X65453771Y41998747D01*
X65562427Y42545000D01*
X65453771Y43091253D01*
X65144343Y43554343D01*
X64754244Y43815000D01*
X65144343Y44075657D01*
X65453771Y44538747D01*
X65562427Y45085000D01*
X65453771Y45631253D01*
X65144343Y46094343D01*
X64754244Y46355000D01*
X65144343Y46615657D01*
X65183995Y46675000D01*
X66995000Y46675000D01*
X66995001Y23175000D01*
X65183995Y23175000D01*
X65144343Y23234343D01*
X65000970Y23330142D01*
X65147684Y23399531D01*
X65593140Y23891009D01*
X65784056Y24351945D01*
X65614918Y24615000D01*
X64285000Y24615000D01*
X64285000Y24595000D01*
X63985000Y24595000D01*
X63985000Y24615000D01*
X63965000Y24615000D01*
X63965000Y24915000D01*
X63985000Y24915000D01*
X63985000Y26245879D01*
X64285000Y26245879D01*
X64285000Y24915000D01*
X65614918Y24915000D01*
X65784056Y25178055D01*
X65593140Y25638991D01*
X65147684Y26130469D01*
X64548056Y26414066D01*
X64285000Y26245879D01*
X63985000Y26245879D01*
X63721944Y26414066D01*
X63180000Y26157751D01*
X63180000Y33561441D01*
X63198610Y33655000D01*
X63180000Y33748559D01*
X63180000Y33748564D01*
X63124880Y34025671D01*
X63069049Y34109228D01*
X62967911Y34260592D01*
X62967909Y34260594D01*
X62914911Y34339911D01*
X62835594Y34392909D01*
X59157911Y38070591D01*
X59104911Y38149911D01*
X58790671Y38359880D01*
X58513564Y38415000D01*
X58513559Y38415000D01*
X58420000Y38433610D01*
X58326441Y38415000D01*
X56073163Y38415000D01*
X55732725Y38642473D01*
X55368109Y38715000D01*
X55121891Y38715000D01*
X54757275Y38642473D01*
X54343801Y38366199D01*
X54067527Y37952725D01*
X53975000Y37487563D01*
X53882473Y37952725D01*
X53606199Y38366199D01*
X53192725Y38642473D01*
X52828109Y38715000D01*
X52581891Y38715000D01*
X52217275Y38642473D01*
X51803801Y38366199D01*
X51527527Y37952725D01*
X51430512Y37465000D01*
X51527527Y36977275D01*
X51755000Y36636836D01*
X51755000Y36583502D01*
X50902910Y37435592D01*
X50849911Y37514911D01*
X50535671Y37724880D01*
X50258564Y37780000D01*
X50258559Y37780000D01*
X50165000Y37798610D01*
X50071441Y37780000D01*
X33413503Y37780000D01*
X32065000Y39128502D01*
X32065000Y40286138D01*
X32088296Y40301704D01*
X32385000Y40745754D01*
X32681704Y40301704D01*
X33128256Y40003328D01*
X33522037Y39925000D01*
X33787963Y39925000D01*
X34181744Y40003328D01*
X34628296Y40301704D01*
X34925000Y40745754D01*
X35221704Y40301704D01*
X35668256Y40003328D01*
X36062037Y39925000D01*
X36327963Y39925000D01*
X36721744Y40003328D01*
X37168296Y40301704D01*
X37307121Y40509470D01*
X37412335Y40288546D01*
X37890516Y39857473D01*
X38329799Y39675527D01*
X38585000Y39845348D01*
X38585000Y41125000D01*
X38565000Y41125000D01*
X38565000Y41425000D01*
X38585000Y41425000D01*
X38585000Y42704652D01*
X38329799Y42874473D01*
X37890516Y42692527D01*
X37412335Y42261454D01*
X37307121Y42040530D01*
X37168296Y42248296D01*
X36721744Y42546672D01*
X36327963Y42625000D01*
X36062037Y42625000D01*
X35668256Y42546672D01*
X35221704Y42248296D01*
X34925000Y41804246D01*
X34628296Y42248296D01*
X34181744Y42546672D01*
X33787963Y42625000D01*
X33522037Y42625000D01*
X33128256Y42546672D01*
X32681704Y42248296D01*
X32385000Y41804246D01*
X32088296Y42248296D01*
X31641744Y42546672D01*
X31247963Y42625000D01*
X30982037Y42625000D01*
X30588256Y42546672D01*
X30141704Y42248296D01*
X29845000Y41804246D01*
X29548296Y42248296D01*
X29101744Y42546672D01*
X28707963Y42625000D01*
X28442037Y42625000D01*
X28048256Y42546672D01*
X27601704Y42248296D01*
X27305000Y41804246D01*
X27008296Y42248296D01*
X26561744Y42546672D01*
X26167963Y42625000D01*
X25902037Y42625000D01*
X25508256Y42546672D01*
X25061704Y42248296D01*
X24765000Y41804246D01*
X24468296Y42248296D01*
X24021744Y42546672D01*
X23627963Y42625000D01*
X23362037Y42625000D01*
X22968256Y42546672D01*
X22521704Y42248296D01*
X22225000Y41804246D01*
X21928296Y42248296D01*
X21481744Y42546672D01*
X21087963Y42625000D01*
X20822037Y42625000D01*
X20428256Y42546672D01*
X19981704Y42248296D01*
X19685000Y41804246D01*
X19388296Y42248296D01*
X19365000Y42263862D01*
X19365000Y47231498D01*
X23867577Y51734075D01*
X59635000Y51734075D01*
X59635000Y51402500D01*
X59847500Y51190000D01*
X60810000Y51190000D01*
X60810000Y52202500D01*
X61110000Y52202500D01*
X61110000Y51190000D01*
X62072500Y51190000D01*
X62285000Y51402500D01*
X62285000Y51734075D01*
X62155595Y52046486D01*
X61916487Y52285595D01*
X61604076Y52415000D01*
X61322500Y52415000D01*
X61110000Y52202500D01*
X60810000Y52202500D01*
X60597500Y52415000D01*
X60315924Y52415000D01*
X60003513Y52285595D01*
X59764405Y52046486D01*
X59635000Y51734075D01*
X23867577Y51734075D01*
X24100594Y51967091D01*
X24179911Y52020089D01*
X24232909Y52099406D01*
X24232911Y52099408D01*
X24357317Y52285595D01*
X24389880Y52334329D01*
X24445000Y52611436D01*
X24445000Y52611441D01*
X24463610Y52705000D01*
X24445000Y52798559D01*
X24445000Y53724076D01*
X62435000Y53724076D01*
X62435000Y53067500D01*
X62647500Y52855000D01*
X63985000Y52855000D01*
X63985000Y54192500D01*
X64285000Y54192500D01*
X64285000Y52855000D01*
X65622500Y52855000D01*
X65835000Y53067500D01*
X65835000Y53724076D01*
X65705595Y54036487D01*
X65466486Y54275595D01*
X65154075Y54405000D01*
X64497500Y54405000D01*
X64285000Y54192500D01*
X63985000Y54192500D01*
X63772500Y54405000D01*
X63115925Y54405000D01*
X62803514Y54275595D01*
X62564405Y54036487D01*
X62435000Y53724076D01*
X24445000Y53724076D01*
X24445000Y63106498D01*
X26640594Y65302091D01*
X26719911Y65355089D01*
X26929880Y65669329D01*
X26985000Y65946436D01*
X26985000Y65946440D01*
X27003610Y66039999D01*
X26985000Y66133558D01*
X26985000Y69656837D01*
X27212473Y69997275D01*
X27309488Y70485000D01*
X27212473Y70972725D01*
X26936199Y71386199D01*
X26522725Y71662473D01*
X26158109Y71735000D01*
X25911891Y71735000D01*
X25547275Y71662473D01*
X25133801Y71386199D01*
X25080000Y71305680D01*
X25080000Y73482233D01*
X25326932Y73235301D01*
X25786360Y73045000D01*
X26283640Y73045000D01*
X26743068Y73235301D01*
X26852767Y73345000D01*
X27625001Y73345000D01*
X27625001Y73118567D01*
X27625000Y73118563D01*
X27625001Y65798504D01*
X25429409Y63602911D01*
X25350089Y63549911D01*
X25140120Y63235670D01*
X25085000Y62958563D01*
X25085000Y62958559D01*
X25066390Y62865000D01*
X25085000Y62771441D01*
X25085001Y59883164D01*
X24857527Y59542725D01*
X24760512Y59055000D01*
X24857527Y58567275D01*
X25133801Y58153801D01*
X25547275Y57877527D01*
X25911891Y57805000D01*
X26158109Y57805000D01*
X26522725Y57877527D01*
X26936199Y58153801D01*
X27212473Y58567275D01*
X27309488Y59055000D01*
X27212473Y59542725D01*
X26985000Y59883163D01*
X26985000Y62471498D01*
X29180594Y64667091D01*
X29259911Y64720089D01*
X29466907Y65029879D01*
X29469879Y65034327D01*
X29469879Y65034328D01*
X29469880Y65034329D01*
X29525000Y65311436D01*
X29525000Y65311440D01*
X29543610Y65404999D01*
X29525000Y65498558D01*
X29525000Y74201436D01*
X29543611Y74295000D01*
X29525000Y74388564D01*
X29525000Y75171498D01*
X31720594Y77367091D01*
X31799911Y77420089D01*
X31902024Y77572911D01*
X32009879Y77734327D01*
X32009879Y77734328D01*
X32009880Y77734329D01*
X32065000Y78011436D01*
X32065000Y78011440D01*
X32083610Y78104999D01*
X32065000Y78198558D01*
X32065000Y93566005D01*
X32124343Y93605657D01*
X32385000Y93995756D01*
X32645657Y93605657D01*
X33108747Y93296229D01*
X33517115Y93215000D01*
X33792885Y93215000D01*
X34201253Y93296229D01*
X34664343Y93605657D01*
X34925000Y93995756D01*
X35185657Y93605657D01*
X35648747Y93296229D01*
X36057115Y93215000D01*
X36332885Y93215000D01*
X36741253Y93296229D01*
X37204343Y93605657D01*
X37465000Y93995756D01*
X37725657Y93605657D01*
X38188747Y93296229D01*
X38597115Y93215000D01*
X38872885Y93215000D01*
X39281253Y93296229D01*
X39744343Y93605657D01*
X40005000Y93995756D01*
X40265657Y93605657D01*
X40728747Y93296229D01*
X41137115Y93215000D01*
X41412885Y93215000D01*
X41821253Y93296229D01*
X42284343Y93605657D01*
X42545000Y93995756D01*
X42805657Y93605657D01*
X42865000Y93566005D01*
X42865001Y74053504D01*
X37036498Y68225000D01*
X36521686Y68225000D01*
X35951996Y67989026D01*
X35515974Y67553004D01*
X35280000Y66983314D01*
X35280000Y66366686D01*
X35515974Y65796996D01*
X35951996Y65360974D01*
X36521686Y65125000D01*
X37138314Y65125000D01*
X37708004Y65360974D01*
X38144026Y65796996D01*
X38380000Y66366686D01*
X38380000Y66881498D01*
X44420594Y72922091D01*
X44499911Y72975089D01*
X44552909Y73054406D01*
X44552911Y73054408D01*
X44654049Y73205772D01*
X44709880Y73289329D01*
X44765000Y73566436D01*
X44765000Y73566441D01*
X44783610Y73660000D01*
X44765000Y73753559D01*
X44765000Y93566005D01*
X44824343Y93605657D01*
X44920142Y93749030D01*
X44989531Y93602316D01*
X45481009Y93156860D01*
X45941945Y92965944D01*
X46205000Y93135082D01*
X46205000Y94465000D01*
X46505000Y94465000D01*
X46505000Y93135082D01*
X46768055Y92965944D01*
X47228991Y93156860D01*
X47720469Y93602316D01*
X48004066Y94201944D01*
X47835879Y94465000D01*
X46505000Y94465000D01*
X46205000Y94465000D01*
X46185000Y94465000D01*
X46185000Y94765000D01*
X46205000Y94765000D01*
X46205000Y96094918D01*
X46505000Y96094918D01*
X46505000Y94765000D01*
X47835879Y94765000D01*
X48004066Y95028056D01*
X47720469Y95627684D01*
X47228991Y96073140D01*
X46768055Y96264056D01*
X46505000Y96094918D01*
X46205000Y96094918D01*
X45941945Y96264056D01*
X45481009Y96073140D01*
X44989531Y95627684D01*
X44920142Y95480970D01*
X44824343Y95624343D01*
X44361253Y95933771D01*
X43952885Y96015000D01*
X43677115Y96015000D01*
X43268747Y95933771D01*
X42805657Y95624343D01*
X42545000Y95234244D01*
X42284343Y95624343D01*
X41821253Y95933771D01*
X41412885Y96015000D01*
X41137115Y96015000D01*
X40728747Y95933771D01*
X40265657Y95624343D01*
X40005000Y95234244D01*
X39744343Y95624343D01*
X39281253Y95933771D01*
X38872885Y96015000D01*
X38597115Y96015000D01*
X38188747Y95933771D01*
X37725657Y95624343D01*
X37465000Y95234244D01*
X37204343Y95624343D01*
X36741253Y95933771D01*
X36332885Y96015000D01*
X36057115Y96015000D01*
X35648747Y95933771D01*
X35185657Y95624343D01*
X34925000Y95234244D01*
X34664343Y95624343D01*
X34201253Y95933771D01*
X33792885Y96015000D01*
X33517115Y96015000D01*
X33108747Y95933771D01*
X32645657Y95624343D01*
X32385000Y95234244D01*
X32124343Y95624343D01*
X31661253Y95933771D01*
X31252885Y96015000D01*
X30977115Y96015000D01*
X30568747Y95933771D01*
X30105657Y95624343D01*
X29845000Y95234244D01*
X29584343Y95624343D01*
X29121253Y95933771D01*
X28712885Y96015000D01*
X28437115Y96015000D01*
X28028747Y95933771D01*
X27565657Y95624343D01*
X27305000Y95234244D01*
X27044343Y95624343D01*
X26581253Y95933771D01*
X26172885Y96015000D01*
X25897115Y96015000D01*
X25488747Y95933771D01*
X25025657Y95624343D01*
X24765000Y95234244D01*
X24504343Y95624343D01*
X24041253Y95933771D01*
X23632885Y96015000D01*
X23357115Y96015000D01*
X22948747Y95933771D01*
X22485657Y95624343D01*
X22225000Y95234244D01*
X21964343Y95624343D01*
X21501253Y95933771D01*
X21092885Y96015000D01*
X20817115Y96015000D01*
X20408747Y95933771D01*
X19945657Y95624343D01*
X19685000Y95234244D01*
X19424343Y95624343D01*
X18961253Y95933771D01*
X18552885Y96015000D01*
X18277115Y96015000D01*
X17868747Y95933771D01*
X17405657Y95624343D01*
X17145000Y95234244D01*
X16884343Y95624343D01*
X16421253Y95933771D01*
X16012885Y96015000D01*
X15737115Y96015000D01*
X15328747Y95933771D01*
X14865657Y95624343D01*
X14605000Y95234244D01*
X14344343Y95624343D01*
X13881253Y95933771D01*
X13472885Y96015000D01*
X13197115Y96015000D01*
X12788747Y95933771D01*
X12325657Y95624343D01*
X12065000Y95234244D01*
X11804343Y95624343D01*
X11745000Y95663995D01*
X11745000Y97061436D01*
X11763611Y97155000D01*
X11689880Y97525671D01*
X11680306Y97540000D01*
X69600000Y97540000D01*
X69600000Y3425000D01*
G36*
X6923513Y96185595D02*
X6684405Y95946486D01*
X6555000Y95634075D01*
X6555000Y94977500D01*
X6767500Y94765000D01*
X8105000Y94765000D01*
X8105000Y94785000D01*
X8405000Y94785000D01*
X8405000Y94765000D01*
X8425000Y94765000D01*
X8425000Y94465000D01*
X8405000Y94465000D01*
X8405000Y93127500D01*
X8617500Y92915000D01*
X9274076Y92915000D01*
X9586487Y93044405D01*
X9825595Y93283514D01*
X9921448Y93514924D01*
X10248747Y93296229D01*
X10657115Y93215000D01*
X10932885Y93215000D01*
X11341253Y93296229D01*
X11804343Y93605657D01*
X12065000Y93995756D01*
X12325657Y93605657D01*
X12788747Y93296229D01*
X13197115Y93215000D01*
X13472885Y93215000D01*
X13881253Y93296229D01*
X14344343Y93605657D01*
X14605000Y93995756D01*
X14865657Y93605657D01*
X15328747Y93296229D01*
X15737115Y93215000D01*
X16012885Y93215000D01*
X16421253Y93296229D01*
X16884343Y93605657D01*
X17145000Y93995756D01*
X17405657Y93605657D01*
X17868747Y93296229D01*
X18277115Y93215000D01*
X18552885Y93215000D01*
X18961253Y93296229D01*
X19424343Y93605657D01*
X19685000Y93995756D01*
X19945657Y93605657D01*
X20005000Y93566005D01*
X20005001Y91622768D01*
X19895301Y91513068D01*
X19705000Y91053640D01*
X19705000Y90556360D01*
X19895301Y90096932D01*
X20005000Y89987233D01*
X20005001Y87723564D01*
X19986390Y87630000D01*
X20060121Y87259329D01*
X20217089Y87024409D01*
X20217092Y87024406D01*
X20270090Y86945089D01*
X20349407Y86892091D01*
X20640000Y86601497D01*
X20640000Y84843502D01*
X20422911Y85060591D01*
X20369911Y85139911D01*
X20055671Y85349880D01*
X19778564Y85405000D01*
X19778559Y85405000D01*
X19685000Y85423610D01*
X19591441Y85405000D01*
X19232767Y85405000D01*
X19123068Y85514699D01*
X18973738Y85576553D01*
X19348973Y85757976D01*
X19751267Y86209555D01*
X19915266Y86605511D01*
X19744062Y86845000D01*
X18565000Y86845000D01*
X18565000Y86825000D01*
X18265000Y86825000D01*
X18265000Y86845000D01*
X17085938Y86845000D01*
X16914734Y86605511D01*
X17078733Y86209555D01*
X17481027Y85757976D01*
X17856262Y85576553D01*
X17706932Y85514699D01*
X17355301Y85163068D01*
X17165000Y84703640D01*
X17165000Y84206360D01*
X17355301Y83746932D01*
X17706932Y83395301D01*
X17856262Y83333447D01*
X17481027Y83152024D01*
X17078733Y82700445D01*
X16914734Y82304489D01*
X17085938Y82065000D01*
X18265000Y82065000D01*
X18265000Y82085000D01*
X18565000Y82085000D01*
X18565000Y82065000D01*
X18585000Y82065000D01*
X18585000Y81765000D01*
X18565000Y81765000D01*
X18565000Y80584764D01*
X18804490Y80414723D01*
X19348973Y80677976D01*
X19370000Y80701579D01*
X19370000Y79318421D01*
X19348973Y79342024D01*
X18804490Y79605277D01*
X18565000Y79435236D01*
X18565000Y78255000D01*
X18585000Y78255000D01*
X18585000Y77955000D01*
X18565000Y77955000D01*
X18565000Y76774764D01*
X18804490Y76604723D01*
X19348973Y76867976D01*
X19370001Y76891580D01*
X19370001Y75508420D01*
X19348973Y75532024D01*
X18804490Y75795277D01*
X18565000Y75625236D01*
X18565000Y74445000D01*
X18585000Y74445000D01*
X18585000Y74145000D01*
X18565000Y74145000D01*
X18565000Y74125000D01*
X18265000Y74125000D01*
X18265000Y74145000D01*
X17085938Y74145000D01*
X16914734Y73905511D01*
X17078733Y73509555D01*
X17229783Y73340000D01*
X14063558Y73340000D01*
X13969999Y73358610D01*
X13876440Y73340000D01*
X13876436Y73340000D01*
X13599329Y73284880D01*
X13285089Y73074911D01*
X13232089Y72995591D01*
X8919409Y68682911D01*
X8840089Y68629911D01*
X8630120Y68315670D01*
X8575000Y68038563D01*
X8575000Y68038559D01*
X8556390Y67945000D01*
X8575000Y67851441D01*
X8575001Y61988504D01*
X6379409Y59792911D01*
X6300089Y59739911D01*
X6090120Y59425670D01*
X6035000Y59148563D01*
X6035000Y59148559D01*
X6016390Y59055000D01*
X6035000Y58961441D01*
X6035001Y29938564D01*
X6016390Y29845000D01*
X6090121Y29474329D01*
X6247089Y29239409D01*
X6247092Y29239406D01*
X6300090Y29160089D01*
X6379407Y29107091D01*
X9424018Y26062479D01*
X9418552Y26035000D01*
X9523328Y25508256D01*
X9821704Y25061704D01*
X10268256Y24763328D01*
X10662037Y24685000D01*
X10927963Y24685000D01*
X11321744Y24763328D01*
X11768296Y25061704D01*
X12065000Y25505754D01*
X12361704Y25061704D01*
X12808256Y24763328D01*
X13202037Y24685000D01*
X13467963Y24685000D01*
X13861744Y24763328D01*
X14308296Y25061704D01*
X14605000Y25505754D01*
X14901704Y25061704D01*
X15348256Y24763328D01*
X15742037Y24685000D01*
X16007963Y24685000D01*
X16401744Y24763328D01*
X16848296Y25061704D01*
X17145000Y25505754D01*
X17412263Y25105766D01*
X16751498Y24445000D01*
X13428558Y24445000D01*
X13334999Y24463610D01*
X13241440Y24445000D01*
X13241436Y24445000D01*
X12964329Y24389880D01*
X12880772Y24334049D01*
X12729408Y24232911D01*
X12729406Y24232909D01*
X12650089Y24179911D01*
X12597091Y24100594D01*
X11459409Y22962911D01*
X11380089Y22909911D01*
X11170120Y22595670D01*
X11115000Y22318563D01*
X11115000Y22318559D01*
X11096390Y22225000D01*
X11115000Y22131441D01*
X11115000Y21783164D01*
X10887527Y21442725D01*
X10790512Y20955000D01*
X10887527Y20467275D01*
X11163801Y20053801D01*
X11577275Y19777527D01*
X11941891Y19705000D01*
X12188109Y19705000D01*
X12552725Y19777527D01*
X12966199Y20053801D01*
X13242473Y20467275D01*
X13335000Y20932437D01*
X13427527Y20467275D01*
X13703801Y20053801D01*
X14117275Y19777527D01*
X14481891Y19705000D01*
X14728109Y19705000D01*
X15092725Y19777527D01*
X15433163Y20005000D01*
X17051441Y20005000D01*
X17145000Y19986390D01*
X17238559Y20005000D01*
X17238564Y20005000D01*
X17429472Y20042974D01*
X16539409Y19152911D01*
X16460089Y19099911D01*
X16250120Y18785670D01*
X16195000Y18508563D01*
X16195000Y18508559D01*
X16176390Y18415000D01*
X16195000Y18321441D01*
X16195001Y12458504D01*
X13999409Y10262911D01*
X13920089Y10209911D01*
X13710120Y9895670D01*
X13655000Y9618563D01*
X13655000Y9618559D01*
X13636390Y9525000D01*
X13655000Y9431441D01*
X13655001Y8033995D01*
X13595657Y7994343D01*
X13499858Y7850970D01*
X13430469Y7997684D01*
X12938991Y8443140D01*
X12478055Y8634056D01*
X12215000Y8464918D01*
X12215000Y7135000D01*
X12235000Y7135000D01*
X12235000Y6835000D01*
X12215000Y6835000D01*
X12215000Y5505082D01*
X12478055Y5335944D01*
X12938991Y5526860D01*
X13430469Y5972316D01*
X13499858Y6119030D01*
X13595657Y5975657D01*
X14058747Y5666229D01*
X14467115Y5585000D01*
X14742885Y5585000D01*
X15151253Y5666229D01*
X15614343Y5975657D01*
X15734225Y6155072D01*
X15734225Y6135000D01*
X15776911Y5920401D01*
X15898472Y5738472D01*
X16080401Y5616911D01*
X16295000Y5574225D01*
X17995000Y5574225D01*
X18209599Y5616911D01*
X18391528Y5738472D01*
X18513089Y5920401D01*
X18555775Y6135000D01*
X18555775Y6571944D01*
X21845934Y6571944D01*
X22129531Y5972316D01*
X22621009Y5526860D01*
X23081945Y5335944D01*
X23345000Y5505082D01*
X23345000Y6835000D01*
X22014121Y6835000D01*
X21845934Y6571944D01*
X18555775Y6571944D01*
X18555775Y7398056D01*
X21845934Y7398056D01*
X22014121Y7135000D01*
X23345000Y7135000D01*
X23345000Y8464918D01*
X23081945Y8634056D01*
X22621009Y8443140D01*
X22129531Y7997684D01*
X21845934Y7398056D01*
X18555775Y7398056D01*
X18555775Y7835000D01*
X18513089Y8049599D01*
X18391528Y8231528D01*
X18209599Y8353089D01*
X18207090Y8353588D01*
X20368503Y10515000D01*
X20883314Y10515000D01*
X21453004Y10750974D01*
X21889026Y11186996D01*
X22125000Y11756686D01*
X22125000Y12373314D01*
X21889026Y12943004D01*
X21453004Y13379026D01*
X20883314Y13615000D01*
X20266686Y13615000D01*
X19696996Y13379026D01*
X19260974Y12943004D01*
X19025000Y12373314D01*
X19025000Y11858503D01*
X16539407Y9372909D01*
X16460090Y9319911D01*
X16407092Y9240594D01*
X16407089Y9240591D01*
X16250121Y9005671D01*
X16176390Y8635000D01*
X16195001Y8541437D01*
X16195001Y8375884D01*
X16080401Y8353089D01*
X15898472Y8231528D01*
X15776911Y8049599D01*
X15734225Y7835000D01*
X15734225Y7814928D01*
X15614343Y7994343D01*
X15555000Y8033995D01*
X15555000Y9131498D01*
X17750594Y11327091D01*
X17829911Y11380089D01*
X17882910Y11459407D01*
X18039879Y11694327D01*
X18039879Y11694328D01*
X18039880Y11694329D01*
X18095000Y11971436D01*
X18095000Y11971440D01*
X18113610Y12064999D01*
X18095000Y12158558D01*
X18095000Y18021498D01*
X24100594Y24027091D01*
X24179911Y24080089D01*
X24232909Y24159406D01*
X24232911Y24159408D01*
X24375631Y24373004D01*
X24389880Y24394329D01*
X24445000Y24671436D01*
X24445000Y24671440D01*
X24463610Y24764999D01*
X24445000Y24858558D01*
X24445000Y25046138D01*
X24468296Y25061704D01*
X24765000Y25505754D01*
X25061704Y25061704D01*
X25085000Y25046138D01*
X25085001Y23888504D01*
X24159409Y22962911D01*
X24080089Y22909911D01*
X23870120Y22595670D01*
X23815000Y22318563D01*
X23815000Y22318559D01*
X23796390Y22225000D01*
X23815000Y22131441D01*
X23815001Y15968567D01*
X23796389Y15875000D01*
X23815001Y15781433D01*
X23815001Y10888564D01*
X23796390Y10795000D01*
X23870121Y10424329D01*
X24027089Y10189409D01*
X24027092Y10189406D01*
X24080090Y10110089D01*
X24159407Y10057091D01*
X25085000Y9131497D01*
X25085000Y8375884D01*
X24970401Y8353089D01*
X24788472Y8231528D01*
X24718313Y8126528D01*
X24368991Y8443140D01*
X23908055Y8634056D01*
X23645000Y8464918D01*
X23645000Y7135000D01*
X23665000Y7135000D01*
X23665000Y6835000D01*
X23645000Y6835000D01*
X23645000Y5505082D01*
X23908055Y5335944D01*
X24368991Y5526860D01*
X24718313Y5843472D01*
X24788472Y5738472D01*
X24970401Y5616911D01*
X25185000Y5574225D01*
X26885000Y5574225D01*
X27099599Y5616911D01*
X27281528Y5738472D01*
X27403089Y5920401D01*
X27445775Y6135000D01*
X27445775Y6571944D01*
X30735934Y6571944D01*
X31019531Y5972316D01*
X31511009Y5526860D01*
X31971945Y5335944D01*
X32235000Y5505082D01*
X32235000Y6835000D01*
X30904121Y6835000D01*
X30735934Y6571944D01*
X27445775Y6571944D01*
X27445775Y7398056D01*
X30735934Y7398056D01*
X30904121Y7135000D01*
X32235000Y7135000D01*
X32235000Y8464918D01*
X31971945Y8634056D01*
X31511009Y8443140D01*
X31019531Y7997684D01*
X30735934Y7398056D01*
X27445775Y7398056D01*
X27445775Y7835000D01*
X27403089Y8049599D01*
X27281528Y8231528D01*
X27099599Y8353089D01*
X26985000Y8375884D01*
X26985000Y9431442D01*
X27003610Y9525001D01*
X26985000Y9618560D01*
X26985000Y9618564D01*
X26929880Y9895671D01*
X26874049Y9979228D01*
X26772911Y10130592D01*
X26772909Y10130594D01*
X26719911Y10209911D01*
X26640594Y10262909D01*
X25715000Y11188502D01*
X25715000Y14925000D01*
X26476837Y14925000D01*
X26817275Y14697527D01*
X27181891Y14625000D01*
X27428109Y14625000D01*
X27792725Y14697527D01*
X28206199Y14973801D01*
X28482473Y15387275D01*
X28579488Y15875000D01*
X28482473Y16362725D01*
X28206199Y16776199D01*
X27792725Y17052473D01*
X27428109Y17125000D01*
X27181891Y17125000D01*
X26817275Y17052473D01*
X26476837Y16825000D01*
X25715000Y16825000D01*
X25715000Y21831498D01*
X26640594Y22757091D01*
X26719911Y22810089D01*
X26772909Y22889406D01*
X26772911Y22889408D01*
X26874049Y23040772D01*
X26929880Y23124329D01*
X26985000Y23401436D01*
X26985000Y23401440D01*
X27003610Y23494999D01*
X26985000Y23588558D01*
X26985000Y25046138D01*
X27008296Y25061704D01*
X27305000Y25505754D01*
X27601704Y25061704D01*
X27625001Y25046138D01*
X27625000Y21048559D01*
X27606390Y20955000D01*
X27625000Y20861441D01*
X27625000Y20861437D01*
X27680120Y20584330D01*
X27890089Y20270089D01*
X27969409Y20217089D01*
X28821497Y19365000D01*
X28133163Y19365000D01*
X27792725Y19592473D01*
X27428109Y19665000D01*
X27181891Y19665000D01*
X26817275Y19592473D01*
X26403801Y19316199D01*
X26127527Y18902725D01*
X26030512Y18415000D01*
X26127527Y17927275D01*
X26403801Y17513801D01*
X26817275Y17237527D01*
X27181891Y17165000D01*
X27428109Y17165000D01*
X27792725Y17237527D01*
X28133163Y17465000D01*
X28895001Y17465000D01*
X28895000Y14698559D01*
X28876390Y14605000D01*
X28895000Y14511441D01*
X28895000Y14511437D01*
X28950120Y14234330D01*
X29160089Y13920089D01*
X29239409Y13867089D01*
X33975001Y9131496D01*
X33975001Y8375884D01*
X33860401Y8353089D01*
X33678472Y8231528D01*
X33608313Y8126528D01*
X33258991Y8443140D01*
X32798055Y8634056D01*
X32535000Y8464918D01*
X32535000Y7135000D01*
X32555000Y7135000D01*
X32555000Y6835000D01*
X32535000Y6835000D01*
X32535000Y5505082D01*
X32798055Y5335944D01*
X33258991Y5526860D01*
X33608313Y5843472D01*
X33678472Y5738472D01*
X33860401Y5616911D01*
X34075000Y5574225D01*
X35775000Y5574225D01*
X35989599Y5616911D01*
X36171528Y5738472D01*
X36293089Y5920401D01*
X36335775Y6135000D01*
X36335775Y6571944D01*
X39625934Y6571944D01*
X39909531Y5972316D01*
X40401009Y5526860D01*
X40861945Y5335944D01*
X41125000Y5505082D01*
X41125000Y6835000D01*
X39794121Y6835000D01*
X39625934Y6571944D01*
X36335775Y6571944D01*
X36335775Y7398056D01*
X39625934Y7398056D01*
X39794121Y7135000D01*
X41125000Y7135000D01*
X41125000Y8464918D01*
X41425000Y8464918D01*
X41425000Y7135000D01*
X41445000Y7135000D01*
X41445000Y6835000D01*
X41425000Y6835000D01*
X41425000Y5505082D01*
X41688055Y5335944D01*
X42148991Y5526860D01*
X42498313Y5843472D01*
X42568472Y5738472D01*
X42750401Y5616911D01*
X42965000Y5574225D01*
X44665000Y5574225D01*
X44879599Y5616911D01*
X45061528Y5738472D01*
X45183089Y5920401D01*
X45225775Y6135000D01*
X45225775Y7835000D01*
X45183089Y8049599D01*
X45061528Y8231528D01*
X44879599Y8353089D01*
X44765000Y8375884D01*
X44765000Y12517233D01*
X44874699Y12626932D01*
X44936553Y12776262D01*
X45117976Y12401027D01*
X45569555Y11998733D01*
X45965511Y11834734D01*
X46205000Y12005938D01*
X46205000Y13185000D01*
X46505000Y13185000D01*
X46505000Y12005938D01*
X46744489Y11834734D01*
X47140445Y11998733D01*
X47592024Y12401027D01*
X47855277Y12945510D01*
X47685236Y13185000D01*
X46505000Y13185000D01*
X46205000Y13185000D01*
X46185000Y13185000D01*
X46185000Y13485000D01*
X46205000Y13485000D01*
X46205000Y14664062D01*
X46505000Y14664062D01*
X46505000Y13485000D01*
X47685236Y13485000D01*
X47855277Y13724490D01*
X47592024Y14268973D01*
X47140445Y14671267D01*
X46744489Y14835266D01*
X46505000Y14664062D01*
X46205000Y14664062D01*
X45965511Y14835266D01*
X45569555Y14671267D01*
X45117976Y14268973D01*
X44936553Y13893738D01*
X44874699Y14043068D01*
X44523068Y14394699D01*
X44063640Y14585000D01*
X43566360Y14585000D01*
X43106932Y14394699D01*
X42755301Y14043068D01*
X42565000Y13583640D01*
X42565000Y13086360D01*
X42755301Y12626932D01*
X42865001Y12517232D01*
X42865000Y8375884D01*
X42750401Y8353089D01*
X42568472Y8231528D01*
X42498313Y8126528D01*
X42148991Y8443140D01*
X41688055Y8634056D01*
X41425000Y8464918D01*
X41125000Y8464918D01*
X40861945Y8634056D01*
X40401009Y8443140D01*
X39909531Y7997684D01*
X39625934Y7398056D01*
X36335775Y7398056D01*
X36335775Y7835000D01*
X36293089Y8049599D01*
X36171528Y8231528D01*
X35989599Y8353089D01*
X35875000Y8375884D01*
X35875000Y9431441D01*
X35893610Y9525000D01*
X35875000Y9618559D01*
X35875000Y9618564D01*
X35819880Y9895671D01*
X35764049Y9979228D01*
X35662911Y10130592D01*
X35662909Y10130594D01*
X35609911Y10209911D01*
X35530594Y10262909D01*
X35265267Y10528236D01*
X35803004Y10750974D01*
X36239026Y11186996D01*
X36475000Y11756686D01*
X36475000Y12373314D01*
X36239026Y12943004D01*
X35875000Y13307030D01*
X35875000Y15057233D01*
X35984699Y15166932D01*
X36175000Y15626360D01*
X36175000Y16123640D01*
X35984699Y16583068D01*
X35875000Y16692767D01*
X35875000Y17465000D01*
X48801441Y17465000D01*
X48895000Y17446390D01*
X48988559Y17465000D01*
X48988564Y17465000D01*
X49265671Y17520120D01*
X49579911Y17730089D01*
X49632911Y17809409D01*
X50770594Y18947091D01*
X50849911Y19000089D01*
X50902909Y19079406D01*
X50902911Y19079408D01*
X51059879Y19314328D01*
X51059880Y19314329D01*
X51115000Y19591436D01*
X51115000Y19591440D01*
X51133610Y19684999D01*
X51115000Y19778558D01*
X51115000Y22131442D01*
X51133610Y22225001D01*
X51115000Y22318560D01*
X51115000Y22318564D01*
X51059880Y22595671D01*
X50942560Y22771253D01*
X50902911Y22830592D01*
X50902909Y22830594D01*
X50849911Y22909911D01*
X50770594Y22962909D01*
X50445000Y23288503D01*
X50445000Y23803314D01*
X50209026Y24373004D01*
X49773004Y24809026D01*
X49203314Y25045000D01*
X48586686Y25045000D01*
X48016996Y24809026D01*
X47652970Y24445000D01*
X44243072Y24445000D01*
X44659484Y24617473D01*
X45137665Y25048546D01*
X45242879Y25269470D01*
X45381704Y25061704D01*
X45828256Y24763328D01*
X46222037Y24685000D01*
X46487963Y24685000D01*
X46881744Y24763328D01*
X47328296Y25061704D01*
X47626672Y25508256D01*
X47731448Y26035000D01*
X47626672Y26561744D01*
X47328296Y27008296D01*
X46881744Y27306672D01*
X46487963Y27385000D01*
X46222037Y27385000D01*
X45828256Y27306672D01*
X45381704Y27008296D01*
X45242879Y26800530D01*
X45137665Y27021454D01*
X44659484Y27452527D01*
X44220201Y27634473D01*
X43965000Y27464652D01*
X43965000Y26185000D01*
X43985000Y26185000D01*
X43985000Y25885000D01*
X43965000Y25885000D01*
X43965000Y25865000D01*
X43665000Y25865000D01*
X43665000Y25885000D01*
X43645000Y25885000D01*
X43645000Y26185000D01*
X43665000Y26185000D01*
X43665000Y27464652D01*
X43409799Y27634473D01*
X42970516Y27452527D01*
X42492335Y27021454D01*
X42387121Y26800530D01*
X42248296Y27008296D01*
X41801744Y27306672D01*
X41407963Y27385000D01*
X41142037Y27385000D01*
X40748256Y27306672D01*
X40301704Y27008296D01*
X40005000Y26564246D01*
X39708296Y27008296D01*
X39261744Y27306672D01*
X38867963Y27385000D01*
X38602037Y27385000D01*
X38208256Y27306672D01*
X37761704Y27008296D01*
X37622879Y26800530D01*
X37517665Y27021454D01*
X37039484Y27452527D01*
X36600201Y27634473D01*
X36345000Y27464652D01*
X36345000Y26185000D01*
X36365000Y26185000D01*
X36365000Y25885000D01*
X36345000Y25885000D01*
X36345000Y24605348D01*
X36600201Y24435527D01*
X37039484Y24617473D01*
X37517665Y25048546D01*
X37622879Y25269470D01*
X37761704Y25061704D01*
X37785001Y25046138D01*
X37785001Y24858563D01*
X37766390Y24765000D01*
X37840121Y24394329D01*
X37997089Y24159409D01*
X37997092Y24159406D01*
X38050090Y24080089D01*
X38129407Y24027091D01*
X39267091Y22889406D01*
X39320089Y22810089D01*
X39399406Y22757091D01*
X39399408Y22757089D01*
X39550772Y22655951D01*
X39634329Y22600120D01*
X39911436Y22545000D01*
X39911440Y22545000D01*
X40004999Y22526390D01*
X40098558Y22545000D01*
X47652970Y22545000D01*
X48016996Y22180974D01*
X48586686Y21945000D01*
X49101497Y21945000D01*
X49215000Y21831497D01*
X49215001Y20078504D01*
X48501498Y19365000D01*
X35742767Y19365000D01*
X35633068Y19474699D01*
X35173640Y19665000D01*
X34676360Y19665000D01*
X34216932Y19474699D01*
X33865301Y19123068D01*
X33675000Y18663640D01*
X33675000Y18166360D01*
X33865301Y17706932D01*
X33975000Y17597233D01*
X33975001Y16692768D01*
X33865301Y16583068D01*
X33675000Y16123640D01*
X33675000Y15626360D01*
X33865301Y15166932D01*
X33975001Y15057232D01*
X33975000Y13307030D01*
X33610974Y12943004D01*
X33388235Y12405267D01*
X30795000Y14998502D01*
X30795000Y18321437D01*
X30813611Y18415000D01*
X30795000Y18508564D01*
X30795000Y19591442D01*
X30813610Y19685001D01*
X30795000Y19778560D01*
X30795000Y19778564D01*
X30739880Y20055671D01*
X30632023Y20217090D01*
X30582911Y20290592D01*
X30582909Y20290594D01*
X30529911Y20369911D01*
X30450594Y20422909D01*
X29525000Y21348502D01*
X29525000Y25046138D01*
X29548296Y25061704D01*
X29845000Y25505754D01*
X30141704Y25061704D01*
X30165001Y25046138D01*
X30165000Y23588559D01*
X30146390Y23495000D01*
X30165000Y23401441D01*
X30165000Y23401437D01*
X30220120Y23124330D01*
X30430089Y22810089D01*
X30509409Y22757089D01*
X32917091Y20349406D01*
X32970089Y20270089D01*
X33049406Y20217091D01*
X33049407Y20217090D01*
X33284327Y20060121D01*
X33284328Y20060121D01*
X33284329Y20060120D01*
X33561436Y20005000D01*
X33561440Y20005000D01*
X33654999Y19986390D01*
X33748558Y20005000D01*
X42986837Y20005000D01*
X43327275Y19777527D01*
X43691891Y19705000D01*
X43938109Y19705000D01*
X44302725Y19777527D01*
X44643163Y20005000D01*
X45537233Y20005000D01*
X45646932Y19895301D01*
X46106360Y19705000D01*
X46603640Y19705000D01*
X47063068Y19895301D01*
X47414699Y20246932D01*
X47605000Y20706360D01*
X47605000Y21203640D01*
X47414699Y21663068D01*
X47063068Y22014699D01*
X46603640Y22205000D01*
X46106360Y22205000D01*
X45646932Y22014699D01*
X45537233Y21905000D01*
X44643163Y21905000D01*
X44302725Y22132473D01*
X43938109Y22205000D01*
X43691891Y22205000D01*
X43327275Y22132473D01*
X42986837Y21905000D01*
X34048503Y21905000D01*
X32065000Y23888502D01*
X32065000Y25046138D01*
X32088296Y25061704D01*
X32227121Y25269470D01*
X32332335Y25048546D01*
X32810516Y24617473D01*
X33249799Y24435527D01*
X33505000Y24605348D01*
X33505000Y25885000D01*
X33805000Y25885000D01*
X33805000Y24605348D01*
X34060201Y24435527D01*
X34499484Y24617473D01*
X34925000Y25001069D01*
X35350516Y24617473D01*
X35789799Y24435527D01*
X36045000Y24605348D01*
X36045000Y25885000D01*
X33805000Y25885000D01*
X33505000Y25885000D01*
X33485000Y25885000D01*
X33485000Y26185000D01*
X33505000Y26185000D01*
X33505000Y27464652D01*
X33805000Y27464652D01*
X33805000Y26185000D01*
X36045000Y26185000D01*
X36045000Y27464652D01*
X35789799Y27634473D01*
X35350516Y27452527D01*
X34925000Y27068931D01*
X34499484Y27452527D01*
X34060201Y27634473D01*
X33805000Y27464652D01*
X33505000Y27464652D01*
X33249799Y27634473D01*
X32810516Y27452527D01*
X32332335Y27021454D01*
X32227121Y26800530D01*
X32088296Y27008296D01*
X31641744Y27306672D01*
X31247963Y27385000D01*
X30982037Y27385000D01*
X30588256Y27306672D01*
X30141704Y27008296D01*
X29845000Y26564246D01*
X29548296Y27008296D01*
X29101744Y27306672D01*
X28707963Y27385000D01*
X28442037Y27385000D01*
X28048256Y27306672D01*
X27601704Y27008296D01*
X27305000Y26564246D01*
X27008296Y27008296D01*
X26561744Y27306672D01*
X26167963Y27385000D01*
X25902037Y27385000D01*
X25508256Y27306672D01*
X25061704Y27008296D01*
X24765000Y26564246D01*
X24468296Y27008296D01*
X24021744Y27306672D01*
X23627963Y27385000D01*
X23362037Y27385000D01*
X22968256Y27306672D01*
X22521704Y27008296D01*
X22225000Y26564246D01*
X21928296Y27008296D01*
X21905000Y27023862D01*
X21905000Y29451498D01*
X23253503Y30800000D01*
X47231498Y30800000D01*
X50697091Y27334406D01*
X50750089Y27255089D01*
X50829406Y27202091D01*
X50829408Y27202089D01*
X50980772Y27100951D01*
X51064329Y27045120D01*
X51341436Y26990000D01*
X51341441Y26990000D01*
X51435000Y26971390D01*
X51528559Y26990000D01*
X54516441Y26990000D01*
X54610000Y26971390D01*
X54703559Y26990000D01*
X54703564Y26990000D01*
X54980671Y27045120D01*
X55294911Y27255089D01*
X55347911Y27334409D01*
X55850593Y27837090D01*
X55929911Y27890089D01*
X55982909Y27969406D01*
X55982911Y27969408D01*
X56139879Y28204328D01*
X56139880Y28204329D01*
X56195000Y28481436D01*
X56195000Y28481441D01*
X56200001Y28506582D01*
X56200000Y9618559D01*
X56181390Y9525000D01*
X56200000Y9431441D01*
X56200000Y9431437D01*
X56255120Y9154330D01*
X56465089Y8840089D01*
X56544409Y8787089D01*
X58952091Y6379406D01*
X59005089Y6300089D01*
X59084406Y6247091D01*
X59084407Y6247090D01*
X59319327Y6090121D01*
X59319328Y6090121D01*
X59319329Y6090120D01*
X59596436Y6035000D01*
X59596440Y6035000D01*
X59689999Y6016390D01*
X59783558Y6035000D01*
X62744116Y6035000D01*
X62766911Y5920401D01*
X62888472Y5738472D01*
X63070401Y5616911D01*
X63285000Y5574225D01*
X64985000Y5574225D01*
X65199599Y5616911D01*
X65381528Y5738472D01*
X65503089Y5920401D01*
X65545775Y6135000D01*
X65545775Y7835000D01*
X65503089Y8049599D01*
X65381528Y8231528D01*
X65199599Y8353089D01*
X64985000Y8395775D01*
X64964928Y8395775D01*
X65144343Y8515657D01*
X65453771Y8978747D01*
X65562427Y9525000D01*
X65453771Y10071253D01*
X65144343Y10534343D01*
X64754244Y10795000D01*
X65144343Y11055657D01*
X65453771Y11518747D01*
X65562427Y12065000D01*
X65453771Y12611253D01*
X65144343Y13074343D01*
X65085000Y13113995D01*
X65085000Y13556005D01*
X65144343Y13595657D01*
X65453771Y14058747D01*
X65562427Y14605000D01*
X65453771Y15151253D01*
X65144343Y15614343D01*
X64754244Y15875000D01*
X65144343Y16135657D01*
X65453771Y16598747D01*
X65562427Y17145000D01*
X65453771Y17691253D01*
X65144343Y18154343D01*
X64754244Y18415000D01*
X65144343Y18675657D01*
X65453771Y19138747D01*
X65562427Y19685000D01*
X65453771Y20231253D01*
X65144343Y20694343D01*
X64754244Y20955000D01*
X65144343Y21215657D01*
X65183995Y21275000D01*
X66995001Y21275000D01*
X66995000Y4838503D01*
X66281498Y4125000D01*
X7378503Y4125000D01*
X5395000Y6108502D01*
X5395000Y6571944D01*
X10415934Y6571944D01*
X10699531Y5972316D01*
X11191009Y5526860D01*
X11651945Y5335944D01*
X11915000Y5505082D01*
X11915000Y6835000D01*
X10584121Y6835000D01*
X10415934Y6571944D01*
X5395000Y6571944D01*
X5395000Y7398056D01*
X10415934Y7398056D01*
X10584121Y7135000D01*
X11915000Y7135000D01*
X11915000Y8464918D01*
X11651945Y8634056D01*
X11191009Y8443140D01*
X10699531Y7997684D01*
X10415934Y7398056D01*
X5395000Y7398056D01*
X5395000Y12267540D01*
X11209672Y12267540D01*
X11261631Y11974061D01*
X11843592Y11770221D01*
X12459261Y11804604D01*
X12868369Y11974061D01*
X12920328Y12267540D01*
X13749672Y12267540D01*
X13801631Y11974061D01*
X14383592Y11770221D01*
X14999261Y11804604D01*
X15408369Y11974061D01*
X15460328Y12267540D01*
X14605000Y13122868D01*
X13749672Y12267540D01*
X12920328Y12267540D01*
X12065000Y13122868D01*
X11209672Y12267540D01*
X5395000Y12267540D01*
X5395000Y13556408D01*
X10500221Y13556408D01*
X10534604Y12940739D01*
X10704061Y12531631D01*
X10997540Y12479672D01*
X11852868Y13335000D01*
X12277132Y13335000D01*
X13132460Y12479672D01*
X13335000Y12515531D01*
X13537540Y12479672D01*
X14392868Y13335000D01*
X14817132Y13335000D01*
X15672460Y12479672D01*
X15965939Y12531631D01*
X16169779Y13113592D01*
X16135396Y13729261D01*
X15965939Y14138369D01*
X15672460Y14190328D01*
X14817132Y13335000D01*
X14392868Y13335000D01*
X13537540Y14190328D01*
X13335000Y14154469D01*
X13132460Y14190328D01*
X12277132Y13335000D01*
X11852868Y13335000D01*
X10997540Y14190328D01*
X10704061Y14138369D01*
X10500221Y13556408D01*
X5395000Y13556408D01*
X5395000Y14402460D01*
X11209672Y14402460D01*
X12065000Y13547132D01*
X12920328Y14402460D01*
X13749672Y14402460D01*
X14605000Y13547132D01*
X15460328Y14402460D01*
X15408369Y14695939D01*
X14826408Y14899779D01*
X14210739Y14865396D01*
X13801631Y14695939D01*
X13749672Y14402460D01*
X12920328Y14402460D01*
X12868369Y14695939D01*
X12286408Y14899779D01*
X11670739Y14865396D01*
X11261631Y14695939D01*
X11209672Y14402460D01*
X5395000Y14402460D01*
X5395000Y74684489D01*
X16914734Y74684489D01*
X17085938Y74445000D01*
X18265000Y74445000D01*
X18265000Y75625236D01*
X18025510Y75795277D01*
X17481027Y75532024D01*
X17078733Y75080445D01*
X16914734Y74684489D01*
X5395000Y74684489D01*
X5395000Y77715511D01*
X16914734Y77715511D01*
X17078733Y77319555D01*
X17481027Y76867976D01*
X18025510Y76604723D01*
X18265000Y76774764D01*
X18265000Y77955000D01*
X17085938Y77955000D01*
X16914734Y77715511D01*
X5395000Y77715511D01*
X5395000Y78494489D01*
X16914734Y78494489D01*
X17085938Y78255000D01*
X18265000Y78255000D01*
X18265000Y79435236D01*
X18025510Y79605277D01*
X17481027Y79342024D01*
X17078733Y78890445D01*
X16914734Y78494489D01*
X5395000Y78494489D01*
X5395000Y81525511D01*
X16914734Y81525511D01*
X17078733Y81129555D01*
X17481027Y80677976D01*
X18025510Y80414723D01*
X18265000Y80584764D01*
X18265000Y81765000D01*
X17085938Y81765000D01*
X16914734Y81525511D01*
X5395000Y81525511D01*
X5395000Y87384489D01*
X16914734Y87384489D01*
X17085938Y87145000D01*
X18265000Y87145000D01*
X18265000Y88325236D01*
X18565000Y88325236D01*
X18565000Y87145000D01*
X19744062Y87145000D01*
X19915266Y87384489D01*
X19751267Y87780445D01*
X19348973Y88232024D01*
X18804490Y88495277D01*
X18565000Y88325236D01*
X18265000Y88325236D01*
X18025510Y88495277D01*
X17481027Y88232024D01*
X17078733Y87780445D01*
X16914734Y87384489D01*
X5395000Y87384489D01*
X5395000Y90415511D01*
X11834734Y90415511D01*
X11998733Y90019555D01*
X12401027Y89567976D01*
X12945510Y89304723D01*
X13185000Y89474764D01*
X13185000Y90655000D01*
X13485000Y90655000D01*
X13485000Y89474764D01*
X13724490Y89304723D01*
X14268973Y89567976D01*
X14671267Y90019555D01*
X14835266Y90415511D01*
X14664062Y90655000D01*
X13485000Y90655000D01*
X13185000Y90655000D01*
X12005938Y90655000D01*
X11834734Y90415511D01*
X5395000Y90415511D01*
X5395000Y91194489D01*
X11834734Y91194489D01*
X12005938Y90955000D01*
X13185000Y90955000D01*
X13185000Y92135236D01*
X13485000Y92135236D01*
X13485000Y90955000D01*
X14664062Y90955000D01*
X14835266Y91194489D01*
X14671267Y91590445D01*
X14268973Y92042024D01*
X13724490Y92305277D01*
X13485000Y92135236D01*
X13185000Y92135236D01*
X12945510Y92305277D01*
X12401027Y92042024D01*
X11998733Y91590445D01*
X11834734Y91194489D01*
X5395000Y91194489D01*
X5395000Y94252500D01*
X6555000Y94252500D01*
X6555000Y93595925D01*
X6684405Y93283514D01*
X6923513Y93044405D01*
X7235924Y92915000D01*
X7892500Y92915000D01*
X8105000Y93127500D01*
X8105000Y94465000D01*
X6767500Y94465000D01*
X6555000Y94252500D01*
X5395000Y94252500D01*
X5395000Y96205000D01*
X6970361Y96205000D01*
X6923513Y96185595D01*
X6923513Y96185595D01*
G37*
X6923513Y96185595D02*
X6684405Y95946486D01*
X6555000Y95634075D01*
X6555000Y94977500D01*
X6767500Y94765000D01*
X8105000Y94765000D01*
X8105000Y94785000D01*
X8405000Y94785000D01*
X8405000Y94765000D01*
X8425000Y94765000D01*
X8425000Y94465000D01*
X8405000Y94465000D01*
X8405000Y93127500D01*
X8617500Y92915000D01*
X9274076Y92915000D01*
X9586487Y93044405D01*
X9825595Y93283514D01*
X9921448Y93514924D01*
X10248747Y93296229D01*
X10657115Y93215000D01*
X10932885Y93215000D01*
X11341253Y93296229D01*
X11804343Y93605657D01*
X12065000Y93995756D01*
X12325657Y93605657D01*
X12788747Y93296229D01*
X13197115Y93215000D01*
X13472885Y93215000D01*
X13881253Y93296229D01*
X14344343Y93605657D01*
X14605000Y93995756D01*
X14865657Y93605657D01*
X15328747Y93296229D01*
X15737115Y93215000D01*
X16012885Y93215000D01*
X16421253Y93296229D01*
X16884343Y93605657D01*
X17145000Y93995756D01*
X17405657Y93605657D01*
X17868747Y93296229D01*
X18277115Y93215000D01*
X18552885Y93215000D01*
X18961253Y93296229D01*
X19424343Y93605657D01*
X19685000Y93995756D01*
X19945657Y93605657D01*
X20005000Y93566005D01*
X20005001Y91622768D01*
X19895301Y91513068D01*
X19705000Y91053640D01*
X19705000Y90556360D01*
X19895301Y90096932D01*
X20005000Y89987233D01*
X20005001Y87723564D01*
X19986390Y87630000D01*
X20060121Y87259329D01*
X20217089Y87024409D01*
X20217092Y87024406D01*
X20270090Y86945089D01*
X20349407Y86892091D01*
X20640000Y86601497D01*
X20640000Y84843502D01*
X20422911Y85060591D01*
X20369911Y85139911D01*
X20055671Y85349880D01*
X19778564Y85405000D01*
X19778559Y85405000D01*
X19685000Y85423610D01*
X19591441Y85405000D01*
X19232767Y85405000D01*
X19123068Y85514699D01*
X18973738Y85576553D01*
X19348973Y85757976D01*
X19751267Y86209555D01*
X19915266Y86605511D01*
X19744062Y86845000D01*
X18565000Y86845000D01*
X18565000Y86825000D01*
X18265000Y86825000D01*
X18265000Y86845000D01*
X17085938Y86845000D01*
X16914734Y86605511D01*
X17078733Y86209555D01*
X17481027Y85757976D01*
X17856262Y85576553D01*
X17706932Y85514699D01*
X17355301Y85163068D01*
X17165000Y84703640D01*
X17165000Y84206360D01*
X17355301Y83746932D01*
X17706932Y83395301D01*
X17856262Y83333447D01*
X17481027Y83152024D01*
X17078733Y82700445D01*
X16914734Y82304489D01*
X17085938Y82065000D01*
X18265000Y82065000D01*
X18265000Y82085000D01*
X18565000Y82085000D01*
X18565000Y82065000D01*
X18585000Y82065000D01*
X18585000Y81765000D01*
X18565000Y81765000D01*
X18565000Y80584764D01*
X18804490Y80414723D01*
X19348973Y80677976D01*
X19370000Y80701579D01*
X19370000Y79318421D01*
X19348973Y79342024D01*
X18804490Y79605277D01*
X18565000Y79435236D01*
X18565000Y78255000D01*
X18585000Y78255000D01*
X18585000Y77955000D01*
X18565000Y77955000D01*
X18565000Y76774764D01*
X18804490Y76604723D01*
X19348973Y76867976D01*
X19370001Y76891580D01*
X19370001Y75508420D01*
X19348973Y75532024D01*
X18804490Y75795277D01*
X18565000Y75625236D01*
X18565000Y74445000D01*
X18585000Y74445000D01*
X18585000Y74145000D01*
X18565000Y74145000D01*
X18565000Y74125000D01*
X18265000Y74125000D01*
X18265000Y74145000D01*
X17085938Y74145000D01*
X16914734Y73905511D01*
X17078733Y73509555D01*
X17229783Y73340000D01*
X14063558Y73340000D01*
X13969999Y73358610D01*
X13876440Y73340000D01*
X13876436Y73340000D01*
X13599329Y73284880D01*
X13285089Y73074911D01*
X13232089Y72995591D01*
X8919409Y68682911D01*
X8840089Y68629911D01*
X8630120Y68315670D01*
X8575000Y68038563D01*
X8575000Y68038559D01*
X8556390Y67945000D01*
X8575000Y67851441D01*
X8575001Y61988504D01*
X6379409Y59792911D01*
X6300089Y59739911D01*
X6090120Y59425670D01*
X6035000Y59148563D01*
X6035000Y59148559D01*
X6016390Y59055000D01*
X6035000Y58961441D01*
X6035001Y29938564D01*
X6016390Y29845000D01*
X6090121Y29474329D01*
X6247089Y29239409D01*
X6247092Y29239406D01*
X6300090Y29160089D01*
X6379407Y29107091D01*
X9424018Y26062479D01*
X9418552Y26035000D01*
X9523328Y25508256D01*
X9821704Y25061704D01*
X10268256Y24763328D01*
X10662037Y24685000D01*
X10927963Y24685000D01*
X11321744Y24763328D01*
X11768296Y25061704D01*
X12065000Y25505754D01*
X12361704Y25061704D01*
X12808256Y24763328D01*
X13202037Y24685000D01*
X13467963Y24685000D01*
X13861744Y24763328D01*
X14308296Y25061704D01*
X14605000Y25505754D01*
X14901704Y25061704D01*
X15348256Y24763328D01*
X15742037Y24685000D01*
X16007963Y24685000D01*
X16401744Y24763328D01*
X16848296Y25061704D01*
X17145000Y25505754D01*
X17412263Y25105766D01*
X16751498Y24445000D01*
X13428558Y24445000D01*
X13334999Y24463610D01*
X13241440Y24445000D01*
X13241436Y24445000D01*
X12964329Y24389880D01*
X12880772Y24334049D01*
X12729408Y24232911D01*
X12729406Y24232909D01*
X12650089Y24179911D01*
X12597091Y24100594D01*
X11459409Y22962911D01*
X11380089Y22909911D01*
X11170120Y22595670D01*
X11115000Y22318563D01*
X11115000Y22318559D01*
X11096390Y22225000D01*
X11115000Y22131441D01*
X11115000Y21783164D01*
X10887527Y21442725D01*
X10790512Y20955000D01*
X10887527Y20467275D01*
X11163801Y20053801D01*
X11577275Y19777527D01*
X11941891Y19705000D01*
X12188109Y19705000D01*
X12552725Y19777527D01*
X12966199Y20053801D01*
X13242473Y20467275D01*
X13335000Y20932437D01*
X13427527Y20467275D01*
X13703801Y20053801D01*
X14117275Y19777527D01*
X14481891Y19705000D01*
X14728109Y19705000D01*
X15092725Y19777527D01*
X15433163Y20005000D01*
X17051441Y20005000D01*
X17145000Y19986390D01*
X17238559Y20005000D01*
X17238564Y20005000D01*
X17429472Y20042974D01*
X16539409Y19152911D01*
X16460089Y19099911D01*
X16250120Y18785670D01*
X16195000Y18508563D01*
X16195000Y18508559D01*
X16176390Y18415000D01*
X16195000Y18321441D01*
X16195001Y12458504D01*
X13999409Y10262911D01*
X13920089Y10209911D01*
X13710120Y9895670D01*
X13655000Y9618563D01*
X13655000Y9618559D01*
X13636390Y9525000D01*
X13655000Y9431441D01*
X13655001Y8033995D01*
X13595657Y7994343D01*
X13499858Y7850970D01*
X13430469Y7997684D01*
X12938991Y8443140D01*
X12478055Y8634056D01*
X12215000Y8464918D01*
X12215000Y7135000D01*
X12235000Y7135000D01*
X12235000Y6835000D01*
X12215000Y6835000D01*
X12215000Y5505082D01*
X12478055Y5335944D01*
X12938991Y5526860D01*
X13430469Y5972316D01*
X13499858Y6119030D01*
X13595657Y5975657D01*
X14058747Y5666229D01*
X14467115Y5585000D01*
X14742885Y5585000D01*
X15151253Y5666229D01*
X15614343Y5975657D01*
X15734225Y6155072D01*
X15734225Y6135000D01*
X15776911Y5920401D01*
X15898472Y5738472D01*
X16080401Y5616911D01*
X16295000Y5574225D01*
X17995000Y5574225D01*
X18209599Y5616911D01*
X18391528Y5738472D01*
X18513089Y5920401D01*
X18555775Y6135000D01*
X18555775Y6571944D01*
X21845934Y6571944D01*
X22129531Y5972316D01*
X22621009Y5526860D01*
X23081945Y5335944D01*
X23345000Y5505082D01*
X23345000Y6835000D01*
X22014121Y6835000D01*
X21845934Y6571944D01*
X18555775Y6571944D01*
X18555775Y7398056D01*
X21845934Y7398056D01*
X22014121Y7135000D01*
X23345000Y7135000D01*
X23345000Y8464918D01*
X23081945Y8634056D01*
X22621009Y8443140D01*
X22129531Y7997684D01*
X21845934Y7398056D01*
X18555775Y7398056D01*
X18555775Y7835000D01*
X18513089Y8049599D01*
X18391528Y8231528D01*
X18209599Y8353089D01*
X18207090Y8353588D01*
X20368503Y10515000D01*
X20883314Y10515000D01*
X21453004Y10750974D01*
X21889026Y11186996D01*
X22125000Y11756686D01*
X22125000Y12373314D01*
X21889026Y12943004D01*
X21453004Y13379026D01*
X20883314Y13615000D01*
X20266686Y13615000D01*
X19696996Y13379026D01*
X19260974Y12943004D01*
X19025000Y12373314D01*
X19025000Y11858503D01*
X16539407Y9372909D01*
X16460090Y9319911D01*
X16407092Y9240594D01*
X16407089Y9240591D01*
X16250121Y9005671D01*
X16176390Y8635000D01*
X16195001Y8541437D01*
X16195001Y8375884D01*
X16080401Y8353089D01*
X15898472Y8231528D01*
X15776911Y8049599D01*
X15734225Y7835000D01*
X15734225Y7814928D01*
X15614343Y7994343D01*
X15555000Y8033995D01*
X15555000Y9131498D01*
X17750594Y11327091D01*
X17829911Y11380089D01*
X17882910Y11459407D01*
X18039879Y11694327D01*
X18039879Y11694328D01*
X18039880Y11694329D01*
X18095000Y11971436D01*
X18095000Y11971440D01*
X18113610Y12064999D01*
X18095000Y12158558D01*
X18095000Y18021498D01*
X24100594Y24027091D01*
X24179911Y24080089D01*
X24232909Y24159406D01*
X24232911Y24159408D01*
X24375631Y24373004D01*
X24389880Y24394329D01*
X24445000Y24671436D01*
X24445000Y24671440D01*
X24463610Y24764999D01*
X24445000Y24858558D01*
X24445000Y25046138D01*
X24468296Y25061704D01*
X24765000Y25505754D01*
X25061704Y25061704D01*
X25085000Y25046138D01*
X25085001Y23888504D01*
X24159409Y22962911D01*
X24080089Y22909911D01*
X23870120Y22595670D01*
X23815000Y22318563D01*
X23815000Y22318559D01*
X23796390Y22225000D01*
X23815000Y22131441D01*
X23815001Y15968567D01*
X23796389Y15875000D01*
X23815001Y15781433D01*
X23815001Y10888564D01*
X23796390Y10795000D01*
X23870121Y10424329D01*
X24027089Y10189409D01*
X24027092Y10189406D01*
X24080090Y10110089D01*
X24159407Y10057091D01*
X25085000Y9131497D01*
X25085000Y8375884D01*
X24970401Y8353089D01*
X24788472Y8231528D01*
X24718313Y8126528D01*
X24368991Y8443140D01*
X23908055Y8634056D01*
X23645000Y8464918D01*
X23645000Y7135000D01*
X23665000Y7135000D01*
X23665000Y6835000D01*
X23645000Y6835000D01*
X23645000Y5505082D01*
X23908055Y5335944D01*
X24368991Y5526860D01*
X24718313Y5843472D01*
X24788472Y5738472D01*
X24970401Y5616911D01*
X25185000Y5574225D01*
X26885000Y5574225D01*
X27099599Y5616911D01*
X27281528Y5738472D01*
X27403089Y5920401D01*
X27445775Y6135000D01*
X27445775Y6571944D01*
X30735934Y6571944D01*
X31019531Y5972316D01*
X31511009Y5526860D01*
X31971945Y5335944D01*
X32235000Y5505082D01*
X32235000Y6835000D01*
X30904121Y6835000D01*
X30735934Y6571944D01*
X27445775Y6571944D01*
X27445775Y7398056D01*
X30735934Y7398056D01*
X30904121Y7135000D01*
X32235000Y7135000D01*
X32235000Y8464918D01*
X31971945Y8634056D01*
X31511009Y8443140D01*
X31019531Y7997684D01*
X30735934Y7398056D01*
X27445775Y7398056D01*
X27445775Y7835000D01*
X27403089Y8049599D01*
X27281528Y8231528D01*
X27099599Y8353089D01*
X26985000Y8375884D01*
X26985000Y9431442D01*
X27003610Y9525001D01*
X26985000Y9618560D01*
X26985000Y9618564D01*
X26929880Y9895671D01*
X26874049Y9979228D01*
X26772911Y10130592D01*
X26772909Y10130594D01*
X26719911Y10209911D01*
X26640594Y10262909D01*
X25715000Y11188502D01*
X25715000Y14925000D01*
X26476837Y14925000D01*
X26817275Y14697527D01*
X27181891Y14625000D01*
X27428109Y14625000D01*
X27792725Y14697527D01*
X28206199Y14973801D01*
X28482473Y15387275D01*
X28579488Y15875000D01*
X28482473Y16362725D01*
X28206199Y16776199D01*
X27792725Y17052473D01*
X27428109Y17125000D01*
X27181891Y17125000D01*
X26817275Y17052473D01*
X26476837Y16825000D01*
X25715000Y16825000D01*
X25715000Y21831498D01*
X26640594Y22757091D01*
X26719911Y22810089D01*
X26772909Y22889406D01*
X26772911Y22889408D01*
X26874049Y23040772D01*
X26929880Y23124329D01*
X26985000Y23401436D01*
X26985000Y23401440D01*
X27003610Y23494999D01*
X26985000Y23588558D01*
X26985000Y25046138D01*
X27008296Y25061704D01*
X27305000Y25505754D01*
X27601704Y25061704D01*
X27625001Y25046138D01*
X27625000Y21048559D01*
X27606390Y20955000D01*
X27625000Y20861441D01*
X27625000Y20861437D01*
X27680120Y20584330D01*
X27890089Y20270089D01*
X27969409Y20217089D01*
X28821497Y19365000D01*
X28133163Y19365000D01*
X27792725Y19592473D01*
X27428109Y19665000D01*
X27181891Y19665000D01*
X26817275Y19592473D01*
X26403801Y19316199D01*
X26127527Y18902725D01*
X26030512Y18415000D01*
X26127527Y17927275D01*
X26403801Y17513801D01*
X26817275Y17237527D01*
X27181891Y17165000D01*
X27428109Y17165000D01*
X27792725Y17237527D01*
X28133163Y17465000D01*
X28895001Y17465000D01*
X28895000Y14698559D01*
X28876390Y14605000D01*
X28895000Y14511441D01*
X28895000Y14511437D01*
X28950120Y14234330D01*
X29160089Y13920089D01*
X29239409Y13867089D01*
X33975001Y9131496D01*
X33975001Y8375884D01*
X33860401Y8353089D01*
X33678472Y8231528D01*
X33608313Y8126528D01*
X33258991Y8443140D01*
X32798055Y8634056D01*
X32535000Y8464918D01*
X32535000Y7135000D01*
X32555000Y7135000D01*
X32555000Y6835000D01*
X32535000Y6835000D01*
X32535000Y5505082D01*
X32798055Y5335944D01*
X33258991Y5526860D01*
X33608313Y5843472D01*
X33678472Y5738472D01*
X33860401Y5616911D01*
X34075000Y5574225D01*
X35775000Y5574225D01*
X35989599Y5616911D01*
X36171528Y5738472D01*
X36293089Y5920401D01*
X36335775Y6135000D01*
X36335775Y6571944D01*
X39625934Y6571944D01*
X39909531Y5972316D01*
X40401009Y5526860D01*
X40861945Y5335944D01*
X41125000Y5505082D01*
X41125000Y6835000D01*
X39794121Y6835000D01*
X39625934Y6571944D01*
X36335775Y6571944D01*
X36335775Y7398056D01*
X39625934Y7398056D01*
X39794121Y7135000D01*
X41125000Y7135000D01*
X41125000Y8464918D01*
X41425000Y8464918D01*
X41425000Y7135000D01*
X41445000Y7135000D01*
X41445000Y6835000D01*
X41425000Y6835000D01*
X41425000Y5505082D01*
X41688055Y5335944D01*
X42148991Y5526860D01*
X42498313Y5843472D01*
X42568472Y5738472D01*
X42750401Y5616911D01*
X42965000Y5574225D01*
X44665000Y5574225D01*
X44879599Y5616911D01*
X45061528Y5738472D01*
X45183089Y5920401D01*
X45225775Y6135000D01*
X45225775Y7835000D01*
X45183089Y8049599D01*
X45061528Y8231528D01*
X44879599Y8353089D01*
X44765000Y8375884D01*
X44765000Y12517233D01*
X44874699Y12626932D01*
X44936553Y12776262D01*
X45117976Y12401027D01*
X45569555Y11998733D01*
X45965511Y11834734D01*
X46205000Y12005938D01*
X46205000Y13185000D01*
X46505000Y13185000D01*
X46505000Y12005938D01*
X46744489Y11834734D01*
X47140445Y11998733D01*
X47592024Y12401027D01*
X47855277Y12945510D01*
X47685236Y13185000D01*
X46505000Y13185000D01*
X46205000Y13185000D01*
X46185000Y13185000D01*
X46185000Y13485000D01*
X46205000Y13485000D01*
X46205000Y14664062D01*
X46505000Y14664062D01*
X46505000Y13485000D01*
X47685236Y13485000D01*
X47855277Y13724490D01*
X47592024Y14268973D01*
X47140445Y14671267D01*
X46744489Y14835266D01*
X46505000Y14664062D01*
X46205000Y14664062D01*
X45965511Y14835266D01*
X45569555Y14671267D01*
X45117976Y14268973D01*
X44936553Y13893738D01*
X44874699Y14043068D01*
X44523068Y14394699D01*
X44063640Y14585000D01*
X43566360Y14585000D01*
X43106932Y14394699D01*
X42755301Y14043068D01*
X42565000Y13583640D01*
X42565000Y13086360D01*
X42755301Y12626932D01*
X42865001Y12517232D01*
X42865000Y8375884D01*
X42750401Y8353089D01*
X42568472Y8231528D01*
X42498313Y8126528D01*
X42148991Y8443140D01*
X41688055Y8634056D01*
X41425000Y8464918D01*
X41125000Y8464918D01*
X40861945Y8634056D01*
X40401009Y8443140D01*
X39909531Y7997684D01*
X39625934Y7398056D01*
X36335775Y7398056D01*
X36335775Y7835000D01*
X36293089Y8049599D01*
X36171528Y8231528D01*
X35989599Y8353089D01*
X35875000Y8375884D01*
X35875000Y9431441D01*
X35893610Y9525000D01*
X35875000Y9618559D01*
X35875000Y9618564D01*
X35819880Y9895671D01*
X35764049Y9979228D01*
X35662911Y10130592D01*
X35662909Y10130594D01*
X35609911Y10209911D01*
X35530594Y10262909D01*
X35265267Y10528236D01*
X35803004Y10750974D01*
X36239026Y11186996D01*
X36475000Y11756686D01*
X36475000Y12373314D01*
X36239026Y12943004D01*
X35875000Y13307030D01*
X35875000Y15057233D01*
X35984699Y15166932D01*
X36175000Y15626360D01*
X36175000Y16123640D01*
X35984699Y16583068D01*
X35875000Y16692767D01*
X35875000Y17465000D01*
X48801441Y17465000D01*
X48895000Y17446390D01*
X48988559Y17465000D01*
X48988564Y17465000D01*
X49265671Y17520120D01*
X49579911Y17730089D01*
X49632911Y17809409D01*
X50770594Y18947091D01*
X50849911Y19000089D01*
X50902909Y19079406D01*
X50902911Y19079408D01*
X51059879Y19314328D01*
X51059880Y19314329D01*
X51115000Y19591436D01*
X51115000Y19591440D01*
X51133610Y19684999D01*
X51115000Y19778558D01*
X51115000Y22131442D01*
X51133610Y22225001D01*
X51115000Y22318560D01*
X51115000Y22318564D01*
X51059880Y22595671D01*
X50942560Y22771253D01*
X50902911Y22830592D01*
X50902909Y22830594D01*
X50849911Y22909911D01*
X50770594Y22962909D01*
X50445000Y23288503D01*
X50445000Y23803314D01*
X50209026Y24373004D01*
X49773004Y24809026D01*
X49203314Y25045000D01*
X48586686Y25045000D01*
X48016996Y24809026D01*
X47652970Y24445000D01*
X44243072Y24445000D01*
X44659484Y24617473D01*
X45137665Y25048546D01*
X45242879Y25269470D01*
X45381704Y25061704D01*
X45828256Y24763328D01*
X46222037Y24685000D01*
X46487963Y24685000D01*
X46881744Y24763328D01*
X47328296Y25061704D01*
X47626672Y25508256D01*
X47731448Y26035000D01*
X47626672Y26561744D01*
X47328296Y27008296D01*
X46881744Y27306672D01*
X46487963Y27385000D01*
X46222037Y27385000D01*
X45828256Y27306672D01*
X45381704Y27008296D01*
X45242879Y26800530D01*
X45137665Y27021454D01*
X44659484Y27452527D01*
X44220201Y27634473D01*
X43965000Y27464652D01*
X43965000Y26185000D01*
X43985000Y26185000D01*
X43985000Y25885000D01*
X43965000Y25885000D01*
X43965000Y25865000D01*
X43665000Y25865000D01*
X43665000Y25885000D01*
X43645000Y25885000D01*
X43645000Y26185000D01*
X43665000Y26185000D01*
X43665000Y27464652D01*
X43409799Y27634473D01*
X42970516Y27452527D01*
X42492335Y27021454D01*
X42387121Y26800530D01*
X42248296Y27008296D01*
X41801744Y27306672D01*
X41407963Y27385000D01*
X41142037Y27385000D01*
X40748256Y27306672D01*
X40301704Y27008296D01*
X40005000Y26564246D01*
X39708296Y27008296D01*
X39261744Y27306672D01*
X38867963Y27385000D01*
X38602037Y27385000D01*
X38208256Y27306672D01*
X37761704Y27008296D01*
X37622879Y26800530D01*
X37517665Y27021454D01*
X37039484Y27452527D01*
X36600201Y27634473D01*
X36345000Y27464652D01*
X36345000Y26185000D01*
X36365000Y26185000D01*
X36365000Y25885000D01*
X36345000Y25885000D01*
X36345000Y24605348D01*
X36600201Y24435527D01*
X37039484Y24617473D01*
X37517665Y25048546D01*
X37622879Y25269470D01*
X37761704Y25061704D01*
X37785001Y25046138D01*
X37785001Y24858563D01*
X37766390Y24765000D01*
X37840121Y24394329D01*
X37997089Y24159409D01*
X37997092Y24159406D01*
X38050090Y24080089D01*
X38129407Y24027091D01*
X39267091Y22889406D01*
X39320089Y22810089D01*
X39399406Y22757091D01*
X39399408Y22757089D01*
X39550772Y22655951D01*
X39634329Y22600120D01*
X39911436Y22545000D01*
X39911440Y22545000D01*
X40004999Y22526390D01*
X40098558Y22545000D01*
X47652970Y22545000D01*
X48016996Y22180974D01*
X48586686Y21945000D01*
X49101497Y21945000D01*
X49215000Y21831497D01*
X49215001Y20078504D01*
X48501498Y19365000D01*
X35742767Y19365000D01*
X35633068Y19474699D01*
X35173640Y19665000D01*
X34676360Y19665000D01*
X34216932Y19474699D01*
X33865301Y19123068D01*
X33675000Y18663640D01*
X33675000Y18166360D01*
X33865301Y17706932D01*
X33975000Y17597233D01*
X33975001Y16692768D01*
X33865301Y16583068D01*
X33675000Y16123640D01*
X33675000Y15626360D01*
X33865301Y15166932D01*
X33975001Y15057232D01*
X33975000Y13307030D01*
X33610974Y12943004D01*
X33388235Y12405267D01*
X30795000Y14998502D01*
X30795000Y18321437D01*
X30813611Y18415000D01*
X30795000Y18508564D01*
X30795000Y19591442D01*
X30813610Y19685001D01*
X30795000Y19778560D01*
X30795000Y19778564D01*
X30739880Y20055671D01*
X30632023Y20217090D01*
X30582911Y20290592D01*
X30582909Y20290594D01*
X30529911Y20369911D01*
X30450594Y20422909D01*
X29525000Y21348502D01*
X29525000Y25046138D01*
X29548296Y25061704D01*
X29845000Y25505754D01*
X30141704Y25061704D01*
X30165001Y25046138D01*
X30165000Y23588559D01*
X30146390Y23495000D01*
X30165000Y23401441D01*
X30165000Y23401437D01*
X30220120Y23124330D01*
X30430089Y22810089D01*
X30509409Y22757089D01*
X32917091Y20349406D01*
X32970089Y20270089D01*
X33049406Y20217091D01*
X33049407Y20217090D01*
X33284327Y20060121D01*
X33284328Y20060121D01*
X33284329Y20060120D01*
X33561436Y20005000D01*
X33561440Y20005000D01*
X33654999Y19986390D01*
X33748558Y20005000D01*
X42986837Y20005000D01*
X43327275Y19777527D01*
X43691891Y19705000D01*
X43938109Y19705000D01*
X44302725Y19777527D01*
X44643163Y20005000D01*
X45537233Y20005000D01*
X45646932Y19895301D01*
X46106360Y19705000D01*
X46603640Y19705000D01*
X47063068Y19895301D01*
X47414699Y20246932D01*
X47605000Y20706360D01*
X47605000Y21203640D01*
X47414699Y21663068D01*
X47063068Y22014699D01*
X46603640Y22205000D01*
X46106360Y22205000D01*
X45646932Y22014699D01*
X45537233Y21905000D01*
X44643163Y21905000D01*
X44302725Y22132473D01*
X43938109Y22205000D01*
X43691891Y22205000D01*
X43327275Y22132473D01*
X42986837Y21905000D01*
X34048503Y21905000D01*
X32065000Y23888502D01*
X32065000Y25046138D01*
X32088296Y25061704D01*
X32227121Y25269470D01*
X32332335Y25048546D01*
X32810516Y24617473D01*
X33249799Y24435527D01*
X33505000Y24605348D01*
X33505000Y25885000D01*
X33805000Y25885000D01*
X33805000Y24605348D01*
X34060201Y24435527D01*
X34499484Y24617473D01*
X34925000Y25001069D01*
X35350516Y24617473D01*
X35789799Y24435527D01*
X36045000Y24605348D01*
X36045000Y25885000D01*
X33805000Y25885000D01*
X33505000Y25885000D01*
X33485000Y25885000D01*
X33485000Y26185000D01*
X33505000Y26185000D01*
X33505000Y27464652D01*
X33805000Y27464652D01*
X33805000Y26185000D01*
X36045000Y26185000D01*
X36045000Y27464652D01*
X35789799Y27634473D01*
X35350516Y27452527D01*
X34925000Y27068931D01*
X34499484Y27452527D01*
X34060201Y27634473D01*
X33805000Y27464652D01*
X33505000Y27464652D01*
X33249799Y27634473D01*
X32810516Y27452527D01*
X32332335Y27021454D01*
X32227121Y26800530D01*
X32088296Y27008296D01*
X31641744Y27306672D01*
X31247963Y27385000D01*
X30982037Y27385000D01*
X30588256Y27306672D01*
X30141704Y27008296D01*
X29845000Y26564246D01*
X29548296Y27008296D01*
X29101744Y27306672D01*
X28707963Y27385000D01*
X28442037Y27385000D01*
X28048256Y27306672D01*
X27601704Y27008296D01*
X27305000Y26564246D01*
X27008296Y27008296D01*
X26561744Y27306672D01*
X26167963Y27385000D01*
X25902037Y27385000D01*
X25508256Y27306672D01*
X25061704Y27008296D01*
X24765000Y26564246D01*
X24468296Y27008296D01*
X24021744Y27306672D01*
X23627963Y27385000D01*
X23362037Y27385000D01*
X22968256Y27306672D01*
X22521704Y27008296D01*
X22225000Y26564246D01*
X21928296Y27008296D01*
X21905000Y27023862D01*
X21905000Y29451498D01*
X23253503Y30800000D01*
X47231498Y30800000D01*
X50697091Y27334406D01*
X50750089Y27255089D01*
X50829406Y27202091D01*
X50829408Y27202089D01*
X50980772Y27100951D01*
X51064329Y27045120D01*
X51341436Y26990000D01*
X51341441Y26990000D01*
X51435000Y26971390D01*
X51528559Y26990000D01*
X54516441Y26990000D01*
X54610000Y26971390D01*
X54703559Y26990000D01*
X54703564Y26990000D01*
X54980671Y27045120D01*
X55294911Y27255089D01*
X55347911Y27334409D01*
X55850593Y27837090D01*
X55929911Y27890089D01*
X55982909Y27969406D01*
X55982911Y27969408D01*
X56139879Y28204328D01*
X56139880Y28204329D01*
X56195000Y28481436D01*
X56195000Y28481441D01*
X56200001Y28506582D01*
X56200000Y9618559D01*
X56181390Y9525000D01*
X56200000Y9431441D01*
X56200000Y9431437D01*
X56255120Y9154330D01*
X56465089Y8840089D01*
X56544409Y8787089D01*
X58952091Y6379406D01*
X59005089Y6300089D01*
X59084406Y6247091D01*
X59084407Y6247090D01*
X59319327Y6090121D01*
X59319328Y6090121D01*
X59319329Y6090120D01*
X59596436Y6035000D01*
X59596440Y6035000D01*
X59689999Y6016390D01*
X59783558Y6035000D01*
X62744116Y6035000D01*
X62766911Y5920401D01*
X62888472Y5738472D01*
X63070401Y5616911D01*
X63285000Y5574225D01*
X64985000Y5574225D01*
X65199599Y5616911D01*
X65381528Y5738472D01*
X65503089Y5920401D01*
X65545775Y6135000D01*
X65545775Y7835000D01*
X65503089Y8049599D01*
X65381528Y8231528D01*
X65199599Y8353089D01*
X64985000Y8395775D01*
X64964928Y8395775D01*
X65144343Y8515657D01*
X65453771Y8978747D01*
X65562427Y9525000D01*
X65453771Y10071253D01*
X65144343Y10534343D01*
X64754244Y10795000D01*
X65144343Y11055657D01*
X65453771Y11518747D01*
X65562427Y12065000D01*
X65453771Y12611253D01*
X65144343Y13074343D01*
X65085000Y13113995D01*
X65085000Y13556005D01*
X65144343Y13595657D01*
X65453771Y14058747D01*
X65562427Y14605000D01*
X65453771Y15151253D01*
X65144343Y15614343D01*
X64754244Y15875000D01*
X65144343Y16135657D01*
X65453771Y16598747D01*
X65562427Y17145000D01*
X65453771Y17691253D01*
X65144343Y18154343D01*
X64754244Y18415000D01*
X65144343Y18675657D01*
X65453771Y19138747D01*
X65562427Y19685000D01*
X65453771Y20231253D01*
X65144343Y20694343D01*
X64754244Y20955000D01*
X65144343Y21215657D01*
X65183995Y21275000D01*
X66995001Y21275000D01*
X66995000Y4838503D01*
X66281498Y4125000D01*
X7378503Y4125000D01*
X5395000Y6108502D01*
X5395000Y6571944D01*
X10415934Y6571944D01*
X10699531Y5972316D01*
X11191009Y5526860D01*
X11651945Y5335944D01*
X11915000Y5505082D01*
X11915000Y6835000D01*
X10584121Y6835000D01*
X10415934Y6571944D01*
X5395000Y6571944D01*
X5395000Y7398056D01*
X10415934Y7398056D01*
X10584121Y7135000D01*
X11915000Y7135000D01*
X11915000Y8464918D01*
X11651945Y8634056D01*
X11191009Y8443140D01*
X10699531Y7997684D01*
X10415934Y7398056D01*
X5395000Y7398056D01*
X5395000Y12267540D01*
X11209672Y12267540D01*
X11261631Y11974061D01*
X11843592Y11770221D01*
X12459261Y11804604D01*
X12868369Y11974061D01*
X12920328Y12267540D01*
X13749672Y12267540D01*
X13801631Y11974061D01*
X14383592Y11770221D01*
X14999261Y11804604D01*
X15408369Y11974061D01*
X15460328Y12267540D01*
X14605000Y13122868D01*
X13749672Y12267540D01*
X12920328Y12267540D01*
X12065000Y13122868D01*
X11209672Y12267540D01*
X5395000Y12267540D01*
X5395000Y13556408D01*
X10500221Y13556408D01*
X10534604Y12940739D01*
X10704061Y12531631D01*
X10997540Y12479672D01*
X11852868Y13335000D01*
X12277132Y13335000D01*
X13132460Y12479672D01*
X13335000Y12515531D01*
X13537540Y12479672D01*
X14392868Y13335000D01*
X14817132Y13335000D01*
X15672460Y12479672D01*
X15965939Y12531631D01*
X16169779Y13113592D01*
X16135396Y13729261D01*
X15965939Y14138369D01*
X15672460Y14190328D01*
X14817132Y13335000D01*
X14392868Y13335000D01*
X13537540Y14190328D01*
X13335000Y14154469D01*
X13132460Y14190328D01*
X12277132Y13335000D01*
X11852868Y13335000D01*
X10997540Y14190328D01*
X10704061Y14138369D01*
X10500221Y13556408D01*
X5395000Y13556408D01*
X5395000Y14402460D01*
X11209672Y14402460D01*
X12065000Y13547132D01*
X12920328Y14402460D01*
X13749672Y14402460D01*
X14605000Y13547132D01*
X15460328Y14402460D01*
X15408369Y14695939D01*
X14826408Y14899779D01*
X14210739Y14865396D01*
X13801631Y14695939D01*
X13749672Y14402460D01*
X12920328Y14402460D01*
X12868369Y14695939D01*
X12286408Y14899779D01*
X11670739Y14865396D01*
X11261631Y14695939D01*
X11209672Y14402460D01*
X5395000Y14402460D01*
X5395000Y74684489D01*
X16914734Y74684489D01*
X17085938Y74445000D01*
X18265000Y74445000D01*
X18265000Y75625236D01*
X18025510Y75795277D01*
X17481027Y75532024D01*
X17078733Y75080445D01*
X16914734Y74684489D01*
X5395000Y74684489D01*
X5395000Y77715511D01*
X16914734Y77715511D01*
X17078733Y77319555D01*
X17481027Y76867976D01*
X18025510Y76604723D01*
X18265000Y76774764D01*
X18265000Y77955000D01*
X17085938Y77955000D01*
X16914734Y77715511D01*
X5395000Y77715511D01*
X5395000Y78494489D01*
X16914734Y78494489D01*
X17085938Y78255000D01*
X18265000Y78255000D01*
X18265000Y79435236D01*
X18025510Y79605277D01*
X17481027Y79342024D01*
X17078733Y78890445D01*
X16914734Y78494489D01*
X5395000Y78494489D01*
X5395000Y81525511D01*
X16914734Y81525511D01*
X17078733Y81129555D01*
X17481027Y80677976D01*
X18025510Y80414723D01*
X18265000Y80584764D01*
X18265000Y81765000D01*
X17085938Y81765000D01*
X16914734Y81525511D01*
X5395000Y81525511D01*
X5395000Y87384489D01*
X16914734Y87384489D01*
X17085938Y87145000D01*
X18265000Y87145000D01*
X18265000Y88325236D01*
X18565000Y88325236D01*
X18565000Y87145000D01*
X19744062Y87145000D01*
X19915266Y87384489D01*
X19751267Y87780445D01*
X19348973Y88232024D01*
X18804490Y88495277D01*
X18565000Y88325236D01*
X18265000Y88325236D01*
X18025510Y88495277D01*
X17481027Y88232024D01*
X17078733Y87780445D01*
X16914734Y87384489D01*
X5395000Y87384489D01*
X5395000Y90415511D01*
X11834734Y90415511D01*
X11998733Y90019555D01*
X12401027Y89567976D01*
X12945510Y89304723D01*
X13185000Y89474764D01*
X13185000Y90655000D01*
X13485000Y90655000D01*
X13485000Y89474764D01*
X13724490Y89304723D01*
X14268973Y89567976D01*
X14671267Y90019555D01*
X14835266Y90415511D01*
X14664062Y90655000D01*
X13485000Y90655000D01*
X13185000Y90655000D01*
X12005938Y90655000D01*
X11834734Y90415511D01*
X5395000Y90415511D01*
X5395000Y91194489D01*
X11834734Y91194489D01*
X12005938Y90955000D01*
X13185000Y90955000D01*
X13185000Y92135236D01*
X13485000Y92135236D01*
X13485000Y90955000D01*
X14664062Y90955000D01*
X14835266Y91194489D01*
X14671267Y91590445D01*
X14268973Y92042024D01*
X13724490Y92305277D01*
X13485000Y92135236D01*
X13185000Y92135236D01*
X12945510Y92305277D01*
X12401027Y92042024D01*
X11998733Y91590445D01*
X11834734Y91194489D01*
X5395000Y91194489D01*
X5395000Y94252500D01*
X6555000Y94252500D01*
X6555000Y93595925D01*
X6684405Y93283514D01*
X6923513Y93044405D01*
X7235924Y92915000D01*
X7892500Y92915000D01*
X8105000Y93127500D01*
X8105000Y94465000D01*
X6767500Y94465000D01*
X6555000Y94252500D01*
X5395000Y94252500D01*
X5395000Y96205000D01*
X6970361Y96205000D01*
X6923513Y96185595D01*
G04 #@! TD*
M02*
