M48
;DRILL file {KiCad (5.0.0)} date 12/01/19 17:18:41
;FORMAT={3:3/ absolute / metric / suppress leading zeros}
FMAT,2
METRIC,TZ
T1C0.700
T2C0.800
T3C0.900
T4C1.000
%
G90
G05
M71
T1
X46355Y20955
X46355Y13335
X14605Y20955
X14605Y13335
X13335Y90805
X20955Y90805
X55245Y37465
X55245Y29845
X43815Y20955
X43815Y13335
X18415Y86995
X26035Y86995
X18415Y78105
X26035Y78105
X12065Y20955
X12065Y13335
X18415Y70485
X26035Y70485
X18415Y84455
X26035Y84455
X18415Y74295
X26035Y74295
X18415Y81915
X26035Y81915
X27305Y18415
X34925Y18415
X10795Y55245
X10795Y47625
X52705Y37465
X52705Y29845
X13335Y55245
X13335Y47625
X27305Y15875
X34925Y15875
X18415Y59055
X26035Y59055
T2
X10795Y41275
X10795Y26035
X13335Y41275
X13335Y26035
X15875Y41275
X15875Y26035
X18415Y41275
X18415Y26035
X20955Y41275
X20955Y26035
X23495Y41275
X23495Y26035
X26035Y41275
X26035Y26035
X28575Y41275
X28575Y26035
X31115Y41275
X31115Y26035
X33655Y41275
X33655Y26035
X36195Y41275
X36195Y26035
X38735Y41275
X38735Y26035
X41275Y41275
X41275Y26035
X43815Y41275
X43815Y26035
X46355Y41275
X46355Y26035
T3
X9525Y88900
X16510Y66675
X20575Y12065
X34925Y12065
X36830Y66675
X48895Y47625
X48895Y23495
X50165Y88900
X53340Y24130
X53975Y50800
X53975Y41275
X64770Y35560
T4
X64135Y52705
X64135Y50165
X64135Y47625
X64135Y45085
X64135Y42545
X64135Y40005
X41275Y6985
X43815Y6985
X12065Y6985
X14605Y6985
X17145Y6985
X23495Y6985
X26035Y6985
X32385Y6985
X34925Y6985
X64135Y24765
X64135Y22225
X64135Y19685
X64135Y17145
X64135Y14605
X64135Y12065
X64135Y9525
X64135Y6985
X8255Y94615
X10795Y94615
X13335Y94615
X15875Y94615
X18415Y94615
X20955Y94615
X23495Y94615
X26035Y94615
X28575Y94615
X31115Y94615
X33655Y94615
X36195Y94615
X38735Y94615
X41275Y94615
X43815Y94615
X46355Y94615
T0
M30
